<?xml version="1.0" standalone="no"?>
<!DOCTYPE svg PUBLIC "-//W3C//DTD SVG 20010904//EN"
 "http://www.w3.org/TR/2001/REC-SVG-20010904/DTD/svg10.dtd">
<svg version="1.0" xmlns="http://www.w3.org/2000/svg"
 width="300.000000pt" height="270.000000pt" viewBox="0 0 300.000000 270.000000"
 preserveAspectRatio="xMidYMid meet">
<g transform="translate(0.000000,270.000000) scale(0.100000,-0.100000)"
fill="#ffffff" stroke="none">
<path d="M1345 2539 c-470 -60 -878 -411 -1010 -866 -109 -374 -35 -768 202
-1083 95 -126 275 -276 418 -348 87 -43 221 -89 322 -109 107 -21 326 -23 432
-4 471 84 858 443 974 906 68 269 33 592 -90 840 -79 158 -243 349 -384 448
-252 176 -563 254 -864 216z m355 -30 c355 -56 677 -289 858 -619 48 -87 104
-252 123 -360 17 -98 17 -305 0 -400 -102 -576 -595 -991 -1176 -992 -270 -1
-503 77 -716 237 -410 308 -576 827 -423 1322 55 177 151 332 298 478 118 118
209 181 355 245 223 99 440 127 681 89z"/>
<path d="M1325 2485 c-120 -18 -199 -43 -312 -96 -140 -65 -232 -129 -333
-229 -216 -217 -332 -478 -346 -784 -24 -494 271 -953 729 -1136 432 -173 912
-79 1256 245 166 157 295 401 337 634 16 90 20 283 9 367 -21 157 -98 355
-192 497 -111 167 -310 334 -496 415 -206 91 -436 121 -652 87z m415 -34 c201
-41 418 -159 570 -310 353 -350 441 -883 220 -1326 -112 -223 -300 -410 -525
-523 -74 -37 -237 -88 -325 -102 -110 -17 -290 -12 -403 11 -457 93 -802 438
-903 904 -23 108 -23 330 1 440 96 455 427 797 873 901 132 31 351 33 492 5z"/>
<path d="M1440 2343 c0 -10 7 -56 15 -103 19 -110 19 -124 -1 -116 -12 5 -15
2 -10 -11 4 -10 4 -14 0 -10 -4 4 -13 2 -20 -4 -9 -8 -43 16 -134 93 -66 57
-125 105 -130 106 -30 10 3 -23 100 -102 110 -90 139 -124 58 -68 -85 59 -230
143 -240 140 -6 -2 60 -46 146 -98 86 -51 154 -95 152 -97 -2 -3 -23 5 -46 17
-23 12 -44 19 -48 16 -10 -10 82 -44 110 -41 15 2 35 10 44 19 8 9 26 19 40
22 26 7 84 -12 84 -27 0 -5 6 -9 14 -9 11 0 14 -13 13 -56 -2 -48 -7 -60 -30
-78 -15 -12 -27 -28 -27 -35 0 -11 4 -10 18 2 10 10 21 14 25 11 9 -9 -4 -35
-14 -28 -15 9 -22 -26 -10 -49 10 -19 10 -18 6 13 l-5 35 15 -35 c9 -19 20
-44 26 -55 8 -17 9 -16 4 7 -3 14 -8 34 -11 45 -4 13 0 11 15 -7 26 -32 27
-14 1 20 -26 34 -25 47 3 24 12 -10 16 -12 10 -4 -7 8 -13 18 -13 23 0 4 6 5
13 1 9 -5 9 -4 0 6 -6 7 -9 19 -6 26 3 8 0 14 -5 14 -6 0 -9 -10 -7 -21 3 -12
1 -19 -2 -15 -14 14 -10 37 8 47 25 13 39 4 39 -27 0 -36 18 -64 40 -64 11 0
20 -4 20 -10 0 -17 -48 -11 -59 8 -7 12 -10 13 -11 3 0 -8 12 -29 26 -48 14
-19 23 -37 19 -41 -3 -3 -9 -2 -13 4 -4 6 -14 13 -24 17 -12 4 -18 -2 -23 -21
-9 -35 -8 -36 4 -40 6 -2 8 3 5 11 -9 24 12 29 49 11 23 -11 42 -14 54 -9 16
8 16 9 -4 12 -13 3 -23 11 -23 19 0 8 -4 14 -8 14 -4 0 -8 9 -9 20 -2 27 13
25 32 -4 9 -14 41 -41 71 -62 57 -40 64 -51 19 -34 -32 12 -96 -2 -115 -25
-11 -13 -15 -12 -37 5 -14 11 -30 17 -35 14 -6 -4 1 -14 14 -23 14 -9 22 -23
20 -33 -2 -10 2 -18 8 -18 7 0 10 7 6 15 -3 9 0 15 10 15 8 0 26 7 39 16 23
15 25 15 25 0 0 -9 8 -16 17 -16 9 0 25 -7 35 -17 11 -10 18 -12 18 -4 0 6 -7
14 -15 17 -8 4 -12 10 -9 15 3 5 -2 9 -11 9 -9 0 -13 5 -10 11 7 11 63 3 79
-11 4 -4 -4 -25 -18 -46 -26 -38 -27 -64 -2 -28 44 60 43 59 62 45 11 -7 3 1
-16 18 -19 17 -29 31 -23 31 14 0 83 -76 83 -92 0 -6 -7 -4 -18 5 -20 18 -42
22 -42 8 0 -5 7 -12 16 -15 8 -3 12 -11 9 -17 -4 -6 2 -13 14 -16 25 -7 29
-58 6 -89 -16 -22 -19 -34 -7 -34 5 0 17 15 27 33 14 27 16 46 11 103 -12 124
-12 126 7 138 14 8 20 8 27 -4 5 -8 13 -11 17 -6 12 11 -29 38 -47 30 -8 -4
-23 -7 -32 -8 -13 0 -15 -7 -11 -29 5 -23 3 -29 -8 -25 -19 6 -13 120 7 131 8
4 14 23 14 42 0 24 5 35 18 38 12 4 11 5 -6 6 -12 0 -25 -6 -28 -14 -4 -8 -12
-15 -20 -15 -8 0 -14 -4 -14 -10 0 -5 7 -10 16 -10 20 0 13 -24 -9 -28 -11 -2
-19 6 -23 22 -5 21 0 32 24 54 24 22 28 33 24 60 -3 26 -7 30 -18 21 -11 -9
-14 -8 -14 4 0 8 6 17 13 20 9 3 9 9 1 23 -11 18 -3 20 143 39 88 12 152 24
151 30 -2 6 -5 9 -8 9 -19 -6 -245 -35 -278 -37 -42 -1 -52 -13 -30 -35 8 -8
8 -15 -2 -27 -11 -13 -11 -20 1 -43 7 -15 15 -30 17 -34 2 -5 -3 -8 -11 -8 -8
0 -17 9 -20 20 -3 12 -14 20 -25 20 -11 0 -27 3 -36 6 -9 3 -16 2 -16 -4 0 -6
13 -13 30 -17 38 -8 43 -17 32 -59 -9 -30 -6 -40 19 -77 21 -32 28 -51 23 -69
-3 -14 -7 -27 -9 -28 -6 -6 -95 58 -95 68 0 5 5 12 11 15 6 4 8 14 5 22 -4 9
-1 22 5 29 11 14 5 34 -12 34 -5 0 -9 -7 -9 -16 0 -9 -8 -23 -17 -30 -17 -13
-17 -13 0 -14 21 0 23 -30 2 -30 -16 0 -35 30 -35 54 0 9 8 16 19 16 14 0 17
6 13 25 -3 19 0 25 12 25 10 0 15 4 11 10 -3 5 -12 7 -21 3 -12 -4 -14 0 -8
23 4 16 11 37 16 47 15 29 1 31 -17 3 -10 -14 -22 -23 -28 -19 -6 4 -8 -3 -3
-21 5 -19 3 -26 -8 -26 -28 0 -25 30 6 65 25 29 29 40 21 58 -18 42 -5 53 127
108 71 30 131 60 134 67 4 9 -3 9 -27 -2 -18 -8 -68 -30 -112 -49 -44 -19
-117 -53 -162 -76 -89 -44 -98 -47 -87 -29 4 6 3 8 -3 5 -6 -4 -18 -1 -27 6
-15 11 -10 23 54 119 69 104 80 128 60 128 -5 0 -10 -4 -10 -10 0 -5 -25 -51
-57 -102 -93 -152 -107 -157 -64 -23 37 115 46 160 33 151 -6 -3 -13 -21 -17
-39 -6 -28 -38 -145 -51 -187 -12 -37 -24 22 -24 123 0 60 -3 106 -7 104 -5
-3 -6 -57 -3 -121 3 -64 2 -116 -1 -116 -3 0 -12 52 -19 115 -7 64 -17 118
-22 121 -4 3 -8 -3 -8 -13z m-39 -260 c13 -15 12 -15 -8 -4 -24 12 -29 21 -14
21 5 0 15 -7 22 -17z m305 0 c1 -10 4 -26 9 -35 4 -11 3 -18 -4 -18 -6 0 -13
11 -17 24 -6 24 -7 24 -46 10 -59 -21 -60 -16 -3 11 62 29 61 29 61 8z m-24
-59 c-2 -16 -9 -32 -15 -36 -9 -6 -7 -16 6 -39 20 -36 23 -73 5 -66 -7 2 -12
14 -11 26 2 11 -2 21 -7 21 -6 0 -10 9 -10 20 0 12 -9 22 -24 26 -27 6 -33 44
-8 44 8 0 12 -6 8 -15 -3 -8 -1 -15 4 -15 6 0 10 5 10 11 0 7 8 18 18 26 15
12 13 13 -20 7 -47 -8 -50 2 -5 15 44 13 53 8 49 -25z m45 -119 c-18 -38 -36
-31 -21 9 3 9 12 16 19 16 10 0 11 -5 2 -25z"/>
<path d="M1527 2313 c-4 -27 -8 -77 -11 -113 l-5 -65 14 65 c22 104 28 160 17
160 -5 0 -12 -21 -15 -47z"/>
<path d="M1330 2345 c0 -3 23 -51 51 -106 27 -56 48 -103 46 -105 -2 -2 -33
43 -68 101 -58 94 -79 120 -79 97 0 -4 32 -55 70 -112 39 -56 69 -105 67 -106
-3 -4 -65 66 -146 165 -32 38 -51 51 -51 34 0 -5 44 -55 99 -113 95 -102 98
-104 110 -81 11 20 7 35 -35 127 -26 57 -52 104 -56 104 -4 0 -8 -2 -8 -5z"/>
<path d="M1390 2339 c0 -20 68 -218 69 -200 1 19 -50 194 -61 206 -5 5 -8 3
-8 -6z"/>
<path d="M1621 2313 c-8 -21 -27 -67 -43 -102 -16 -35 -27 -65 -24 -68 5 -5
96 182 96 197 0 23 -17 7 -29 -27z"/>
<path d="M1676 2235 c-43 -53 -76 -98 -74 -100 2 -2 33 30 68 71 36 42 71 82
78 90 8 8 12 19 10 25 -2 6 -39 -33 -82 -86z"/>
<path d="M1784 2277 c-52 -54 -176 -159 -189 -161 -23 -3 -26 -12 -5 -13 10
-1 60 34 112 79 126 108 136 118 118 117 -8 0 -25 -10 -36 -22z"/>
<path d="M1870 2263 c-171 -112 -250 -165 -250 -169 0 -6 0 -6 153 89 70 44
127 84 127 88 0 11 0 11 -30 -8z"/>
<path d="M996 2222 c5 -5 64 -31 131 -58 127 -51 137 -60 127 -113 -4 -19 1
-32 20 -50 27 -26 34 -55 15 -67 -6 -3 -15 -2 -21 4 -6 6 -6 12 1 16 14 9 14
26 0 26 -7 0 -20 10 -30 22 -15 17 -19 18 -19 5 0 -9 5 -19 10 -22 6 -3 10
-15 10 -25 0 -11 11 -31 26 -45 14 -14 22 -30 18 -37 -5 -7 -10 -4 -15 10 -13
34 -43 45 -81 28 l-33 -15 44 6 c44 6 44 6 37 -21 -5 -22 -4 -27 11 -24 14 2
17 -3 15 -21 -4 -40 -42 -72 -42 -36 0 8 5 15 10 15 16 0 12 18 -9 39 -11 11
-24 15 -31 11 -9 -5 -9 -9 -1 -14 6 -4 11 -17 11 -30 0 -12 5 -27 12 -34 6 -6
10 -13 7 -15 -2 -2 -25 -18 -50 -35 -46 -31 -47 -31 -53 -10 -3 12 -4 22 -3
23 17 3 77 41 77 47 0 5 -15 0 -34 -11 -48 -30 -52 -26 -18 19 27 37 29 45 20
75 -15 46 -5 65 32 65 16 0 30 5 30 10 0 24 -76 5 -83 -21 -6 -21 -27 -26 -27
-6 0 7 7 23 16 35 12 18 13 26 4 37 -19 23 -1 37 46 34 24 -2 46 0 49 3 9 8
-33 17 -112 23 -38 3 -123 12 -188 20 -109 13 -137 13 -124 0 3 -2 75 -12 161
-21 150 -17 156 -18 145 -37 -9 -15 -9 -21 1 -24 6 -3 12 -9 12 -14 0 -4 -7
-6 -15 -3 -12 5 -15 -2 -15 -33 0 -30 6 -45 25 -61 14 -12 25 -28 25 -36 0
-18 -26 -39 -40 -31 -15 9 -12 25 5 25 8 0 15 5 15 10 0 6 -6 10 -14 10 -8 0
-16 7 -20 15 -3 8 -13 15 -23 14 -11 0 -13 -3 -5 -6 6 -2 12 -20 12 -38 0 -19
6 -38 14 -42 19 -11 26 -124 9 -130 -7 -3 -13 2 -13 11 0 17 -34 56 -48 56 -5
0 -17 -7 -28 -15 -18 -14 -17 -14 13 -9 29 6 33 3 39 -21 4 -15 2 -44 -5 -65
-18 -61 -14 -123 12 -161 31 -47 62 -60 155 -68 9 -1 11 -8 7 -22 -5 -15 -4
-19 4 -15 19 12 13 46 -8 46 -14 0 -18 5 -14 19 6 23 -14 38 -30 22 -8 -8 -7
-11 3 -11 11 0 11 -3 2 -12 -16 -16 -68 22 -65 48 1 10 -7 29 -18 42 l-19 25
0 -24 c0 -13 9 -40 20 -59 l21 -35 -31 33 c-37 40 -43 101 -10 109 11 3 20 12
20 19 0 8 5 14 10 14 6 0 10 5 10 10 0 15 -26 12 -40 -5 -7 -9 -15 -14 -17
-11 -7 7 27 66 38 66 7 0 6 -6 -2 -17 -13 -17 -12 -17 4 -3 17 13 21 12 37
-10 11 -14 15 -26 10 -28 -6 -2 -10 -8 -10 -14 0 -7 4 -7 13 1 10 8 17 7 25
-1 21 -21 13 3 -13 36 -14 18 -25 39 -25 46 0 10 -4 9 -17 -1 -17 -13 -17 -13
-3 5 26 33 113 87 124 76 15 -15 54 -12 81 6 29 19 48 10 39 -19 -5 -17 -4
-19 6 -10 16 15 5 63 -15 63 -7 0 -17 -5 -20 -10 -3 -6 -17 -7 -31 -4 -19 5
-23 3 -18 -10 7 -18 -20 -23 -31 -6 -8 13 24 60 42 60 8 0 11 -4 8 -10 -3 -5
2 -10 12 -10 10 0 23 10 28 22 14 32 39 37 30 7 l-6 -24 21 25 c21 24 22 24
16 3 -16 -60 -15 -65 3 -28 23 47 25 59 10 49 -7 -4 -10 -1 -7 7 3 8 11 13 17
11 7 -1 10 2 6 8 -3 5 -2 10 4 10 5 0 12 -14 16 -30 4 -17 11 -28 16 -24 5 3
9 1 9 -3 0 -5 -9 -14 -21 -21 -20 -13 -21 -12 -15 20 9 50 -25 -50 -59 -175
l-29 -107 -17 32 c-15 29 -15 35 -2 55 9 13 12 23 8 23 -4 0 3 9 16 19 14 11
20 23 15 28 -5 4 -11 2 -13 -4 -3 -7 -11 -13 -18 -13 -7 0 -15 -5 -17 -12 -4
-12 -12 -9 -58 17 -32 19 -78 18 -110 0 -24 -14 -23 -15 18 -9 29 5 42 3 42
-5 0 -7 -4 -10 -8 -7 -5 3 -16 -8 -26 -25 -11 -18 -13 -29 -6 -29 7 0 14 9 17
21 5 16 11 19 31 14 19 -5 23 -3 19 9 -8 19 12 21 36 3 16 -11 16 -14 2 -35
-9 -12 -21 -19 -27 -16 -15 9 -58 -17 -58 -36 0 -9 7 -25 15 -36 16 -21 20
-64 6 -64 -5 0 -16 19 -23 43 -13 36 -19 42 -46 45 -35 4 -54 -20 -33 -41 9
-9 11 -8 6 6 -13 33 24 18 49 -20 13 -21 33 -46 44 -57 32 -28 46 -110 29
-166 l-14 -45 1 42 c1 57 -24 83 -81 83 -38 0 -46 4 -63 33 -14 22 -20 26 -20
14 0 -23 43 -67 67 -68 13 -1 10 -3 -7 -9 -17 -5 -19 -8 -7 -9 9 -1 17 -5 17
-11 0 -5 7 -10 15 -10 8 0 12 6 9 14 -9 22 12 27 34 8 12 -10 22 -34 25 -59 6
-49 -7 -66 -19 -25 -8 30 -8 30 1 55 4 10 3 17 -4 17 -6 0 -11 -9 -11 -19 0
-12 -9 -21 -25 -25 -17 -4 -25 -13 -25 -28 0 -21 1 -21 13 -3 8 10 19 15 25
11 21 -12 13 -54 -13 -74 -34 -27 -32 -36 4 -18 65 34 105 112 99 194 -3 43 0
50 36 87 24 24 37 32 32 20 -16 -39 -18 -55 -8 -55 6 0 13 19 17 43 4 23 17
74 29 112 13 39 31 103 41 143 11 40 24 71 29 69 15 -5 9 -96 -7 -115 -9 -12
-9 -16 1 -19 15 -6 15 -23 0 -73 -9 -27 -19 -40 -30 -40 -29 0 -21 -18 23 -50
31 -22 45 -27 55 -20 8 8 14 8 19 0 5 -8 11 -8 21 1 11 9 14 8 14 -8 0 -17 -7
-20 -45 -20 -30 0 -45 5 -45 13 0 22 -26 5 -27 -18 -1 -11 -11 -29 -22 -40
-12 -10 -21 -28 -21 -38 0 -11 -6 -20 -12 -20 -7 0 -22 -7 -32 -15 -16 -12
-17 -18 -8 -27 20 -20 14 -55 -14 -73 -14 -9 -27 -15 -29 -13 -2 2 5 35 15 73
10 38 17 72 14 74 -2 2 3 13 13 23 20 23 12 33 -16 18 -22 -11 -29 -40 -11
-40 7 0 7 -6 1 -18 -5 -9 -16 -42 -24 -72 -12 -48 -12 -57 0 -69 11 -10 18
-10 26 -2 16 16 27 14 27 -5 0 -13 -7 -15 -38 -11 -30 5 -43 2 -67 -18 -26
-20 -28 -26 -17 -42 7 -10 15 -26 18 -35 4 -10 10 -18 15 -18 5 0 9 -7 9 -15
0 -22 -8 -19 -54 22 -23 21 -40 45 -38 54 2 12 -5 19 -20 21 -17 2 -22 8 -20
26 2 13 -3 25 -13 28 -21 8 -33 -5 -15 -16 26 -16 -8 -40 -56 -40 -50 0 -61
12 -43 46 9 18 21 24 46 24 l34 0 -3 83 c-3 74 -5 82 -23 82 -21 0 -22 4 -24
68 -1 26 -6 37 -16 37 -11 0 -15 12 -15 50 0 28 -4 50 -10 50 -5 0 -10 22 -10
49 0 34 -4 51 -15 55 -11 4 -15 21 -15 61 0 30 -4 55 -9 55 -4 0 -14 50 -21
110 -7 61 -17 110 -21 110 -5 0 -9 -7 -9 -15 0 -12 -17 -15 -94 -15 -57 0 -97
-4 -101 -11 -5 -7 24 -9 94 -7 108 3 110 3 90 -49 -7 -20 -7 -29 1 -31 8 -3 7
-8 -2 -19 -6 -8 -11 -28 -10 -44 1 -16 -2 -29 -8 -29 -5 0 -10 -25 -10 -55 0
-40 -4 -57 -15 -61 -10 -4 -15 -21 -15 -54 0 -32 -5 -50 -14 -53 -8 -3 -12
-14 -10 -24 5 -20 -3 -33 -28 -48 -9 -5 -35 -23 -58 -39 -47 -34 -65 -29 -26
7 24 23 52 85 42 95 -7 7 -65 -41 -60 -49 2 -5 11 -6 19 -2 19 7 19 -2 -1 -21
-19 -20 -54 -5 -54 23 0 19 29 51 47 51 23 0 45 39 38 69 -5 24 -2 32 15 41
16 9 21 18 17 36 -5 28 6 39 50 49 31 6 56 25 34 25 -12 0 -324 -99 -329 -105
-2 -2 0 -5 5 -8 4 -3 53 10 108 29 118 39 115 39 115 16 0 -19 -36 -46 -50
-37 -17 11 -11 -47 7 -60 9 -7 13 -17 9 -23 -10 -17 -26 -15 -26 3 0 22 -17
18 -23 -5 -3 -11 -12 -20 -21 -20 -11 0 -16 -9 -16 -29 0 -16 -5 -31 -12 -33
-6 -2 3 -18 22 -35 27 -25 32 -35 26 -57 -4 -15 -11 -24 -16 -21 -11 7 -14 -8
-3 -19 4 -3 16 3 27 14 32 32 128 100 140 99 6 0 1 -7 -11 -16 -19 -12 -23
-25 -23 -64 0 -46 -2 -49 -25 -49 -25 0 -25 -1 -25 -80 l0 -80 39 0 c34 0 42
-4 55 -30 14 -29 13 -31 -7 -44 -38 -24 -82 -29 -97 -11 -12 14 -11 18 0 25 8
5 11 12 7 16 -10 10 -37 -15 -31 -30 3 -8 -4 -16 -15 -19 -24 -6 -28 -37 -5
-37 8 0 12 5 9 10 -4 6 10 10 36 10 40 0 41 -1 26 -18 -10 -10 -17 -24 -17
-31 0 -8 -8 -11 -20 -8 -11 3 -20 1 -20 -4 0 -11 51 -11 69 0 7 5 11 13 7 19
-10 17 4 40 29 46 13 3 31 13 40 22 13 13 21 14 40 6 21 -10 23 -17 24 -97 l1
-86 -30 34 c-30 34 -39 67 -20 67 6 0 10 -4 10 -10 0 -5 5 -10 11 -10 7 0 9 9
6 22 -3 12 -2 30 4 40 17 32 -8 20 -37 -17 -14 -19 -24 -41 -21 -49 4 -10 -7
-15 -42 -18 -34 -3 -57 -13 -77 -31 -32 -30 -56 -34 -74 -12 -10 12 -10 18 0
30 8 9 9 15 2 15 -31 0 -25 -57 8 -78 17 -10 25 -10 36 -1 11 9 14 8 14 -7 1
-17 3 -16 20 5 11 13 20 29 20 36 0 7 7 15 15 19 13 5 14 2 5 -15 -6 -11 -9
-28 -5 -38 8 -25 55 -16 55 10 0 21 -16 26 -23 7 -2 -7 -8 -9 -13 -5 -14 13
11 42 39 45 37 5 67 -14 83 -53 20 -49 18 -58 -11 -39 -38 25 -75 12 -75 -26
0 -34 29 -57 48 -38 17 17 15 33 -1 19 -15 -12 -27 -5 -27 15 0 20 31 25 56 9
26 -17 32 -35 11 -35 -19 0 -41 -50 -28 -63 6 -6 5 -15 -5 -24 -21 -22 -17
-35 21 -79 25 -27 43 -39 63 -39 22 0 28 -5 30 -27 4 -37 41 -46 93 -23 37 17
40 17 59 0 12 -11 20 -31 20 -52 0 -39 29 -73 64 -73 13 0 35 9 49 20 40 32
75 26 116 -19 47 -51 81 -60 121 -31 16 12 30 29 30 37 0 14 -4 12 -23 -5 -40
-37 -98 -28 -123 19 -8 16 -26 36 -39 45 -24 16 -27 15 -63 -10 -21 -14 -47
-26 -58 -26 -29 0 -54 31 -54 67 0 31 -46 83 -73 83 -17 0 -37 20 -37 37 0 7
7 13 15 13 9 0 15 9 15 21 0 18 -2 19 -15 9 -22 -18 -32 -3 -13 17 15 15 15
18 -5 44 -12 18 -30 29 -44 29 -13 0 -26 7 -29 15 -4 8 -13 15 -21 15 -21 0
-10 23 17 37 17 9 28 9 37 1 20 -16 16 -31 -7 -25 -24 6 -27 -11 -4 -20 19 -7
47 24 37 40 -3 5 0 13 7 17 8 5 2 10 -19 15 -21 4 -39 2 -54 -8 l-23 -15 -2
86 c-2 81 -2 85 14 67 14 -18 15 -18 10 -2 -4 12 -2 17 6 14 7 -2 13 -14 12
-26 -1 -25 11 -28 20 -5 4 9 -2 28 -11 42 -10 13 -23 33 -29 43 -14 25 -26 12
-13 -13 6 -11 8 -22 5 -26 -8 -8 -13 -1 -21 29 -6 23 -2 29 25 43 30 15 34 14
59 -3 23 -17 33 -18 78 -9 51 10 99 4 77 -10 -8 -5 -6 -23 6 -59 12 -37 13
-50 4 -46 -8 3 -11 -2 -7 -15 8 -31 -30 -38 -66 -13 -46 33 -81 36 -120 9 -19
-13 -37 -29 -39 -37 -3 -10 5 -7 23 7 32 25 83 29 91 7 8 -20 -6 -41 -17 -24
-4 7 -10 11 -13 8 -3 -3 0 -14 8 -24 18 -25 39 -10 34 26 -5 35 7 39 16 4 7
-29 46 -55 46 -30 0 8 6 15 14 15 8 0 23 12 34 26 l19 27 7 -34 c3 -18 16 -43
28 -56 15 -17 18 -23 7 -23 -9 -1 -7 -7 9 -19 22 -19 31 -38 12 -26 -16 10
-12 -7 7 -27 15 -17 15 -18 -3 -18 -18 -1 -18 -2 2 -18 13 -11 20 -28 19 -42
-1 -14 2 -31 8 -38 6 -8 6 -17 -2 -26 -7 -9 -8 -17 -3 -20 6 -3 13 1 16 10 3
8 11 12 17 8 9 -5 6 -11 -6 -21 -22 -15 -65 -18 -65 -3 0 6 4 10 9 10 17 0 22
39 9 64 -14 26 -163 186 -174 186 -3 0 -4 -7 0 -15 4 -11 -2 -15 -24 -15 -20
0 -30 -5 -30 -15 0 -18 21 -20 37 -4 19 19 33 0 33 -47 0 -25 6 -55 14 -67 8
-12 14 -37 12 -56 -3 -39 27 -89 64 -108 34 -17 142 -9 178 13 34 19 92 13
113 -12 11 -13 10 -18 -4 -25 -20 -12 -23 -35 -4 -42 9 -3 9 -8 -2 -21 -18
-22 -65 -17 -69 6 -2 13 1 16 12 12 25 -9 20 23 -6 37 -18 10 -20 9 -15 -5 9
-23 -2 -20 -22 6 -13 16 -23 19 -37 13 -18 -8 -18 -9 3 -12 15 -3 26 -16 33
-39 7 -20 21 -39 33 -43 27 -10 73 5 82 27 5 14 7 14 16 2 8 -13 10 -13 18 -1
7 11 11 9 20 -8 14 -26 52 -36 79 -22 11 6 26 27 32 46 8 24 18 35 31 35 11 0
17 5 14 10 -10 15 -22 12 -45 -12 -18 -20 -20 -20 -20 -3 0 17 -1 17 -20 0
-19 -17 -19 -30 1 -30 5 0 9 -3 9 -7 0 -5 0 -12 0 -18 0 -5 -13 -10 -30 -10
-21 0 -35 8 -46 26 -13 19 -24 24 -41 21 -28 -5 -30 8 -3 23 15 8 23 6 40 -12
16 -18 20 -19 20 -5 0 9 -8 21 -17 26 -17 10 -17 12 1 26 31 24 81 29 108 11
13 -9 51 -19 84 -22 99 -11 146 25 158 121 3 27 11 54 16 59 6 6 10 28 10 51
0 22 4 55 9 73 5 17 7 32 3 32 -14 0 -160 -162 -172 -190 -15 -36 1 -64 31
-55 11 4 19 2 19 -5 0 -6 -4 -9 -9 -5 -5 3 -12 1 -16 -5 -3 -5 -15 -10 -26
-10 -29 0 -61 19 -53 32 5 7 11 5 20 -6 8 -12 14 -14 19 -5 4 6 2 15 -6 19 -9
6 -10 12 -2 22 6 7 9 25 8 40 -2 18 2 31 13 38 13 8 14 11 4 18 -10 7 -10 11
3 22 16 14 21 35 5 25 -5 -3 -10 -2 -10 3 0 6 6 12 14 15 7 3 16 16 19 29 3
13 15 48 27 78 27 71 50 153 44 162 -11 17 97 11 109 -6 6 -8 10 -8 14 2 2 6
10 12 18 12 7 0 18 7 25 15 9 11 16 13 24 5 5 -5 18 -10 28 -10 16 0 18 -10
18 -97 l0 -97 -21 22 c-23 26 -38 92 -20 92 6 0 11 -7 11 -17 0 -38 15 3 16
44 1 37 0 43 -9 27 -6 -10 -19 -28 -30 -39 -12 -14 -17 -29 -13 -47 5 -26 4
-27 -24 -21 -31 6 -90 -13 -90 -28 0 -13 -58 -11 -66 3 -4 6 -2 14 4 16 7 2
12 9 12 15 0 6 -8 4 -17 -6 -15 -14 -15 -20 -3 -42 7 -14 22 -25 33 -25 13 0
17 -5 13 -15 -3 -8 -2 -15 3 -15 11 0 41 34 41 47 0 6 7 16 15 23 14 11 14 10
7 -11 -12 -31 -5 -49 18 -49 19 0 35 26 20 35 -4 3 -10 -1 -13 -7 -2 -7 -8 -9
-13 -5 -16 15 13 42 42 40 34 -3 70 -38 80 -78 7 -29 7 -30 -13 -13 -21 19
-93 25 -93 8 0 -5 5 -10 11 -10 5 0 8 -4 5 -9 -4 -5 -3 -16 0 -25 7 -18 39
-22 49 -5 4 6 0 9 -11 7 -12 -2 -19 3 -19 12 0 23 39 23 60 0 16 -17 16 -20 2
-20 -9 0 -18 -9 -22 -19 -4 -12 -12 -17 -24 -14 -17 4 -71 -35 -71 -52 0 -5 7
-17 17 -27 20 -22 11 -35 -10 -14 -18 18 -27 12 -20 -15 4 -12 11 -18 20 -15
28 11 8 -28 -22 -44 -45 -23 -75 -58 -75 -88 0 -64 -53 -91 -103 -52 -41 33
-73 26 -102 -20 -22 -36 -57 -60 -85 -60 -5 0 -22 12 -39 26 -37 31 -42 14 -6
-21 40 -41 93 -29 134 31 28 40 68 46 108 14 27 -21 59 -25 81 -11 19 12 42
59 42 86 0 37 25 51 63 36 18 -7 41 -15 53 -18 20 -5 44 14 48 39 3 25 17 37
33 31 10 -4 28 8 54 37 42 47 47 61 25 79 -7 6 -11 22 -9 35 3 16 -2 31 -17
46 -17 17 -19 24 -9 36 14 17 55 19 65 3 3 -6 1 -16 -5 -22 -9 -9 -14 -9 -20
2 -6 9 -11 10 -15 3 -4 -6 2 -16 13 -21 23 -13 46 9 46 45 1 30 -50 42 -77 18
-17 -16 -18 -16 -18 6 0 37 46 90 79 90 34 0 56 -23 46 -47 -8 -17 -8 -17 -12
-1 -5 21 -23 24 -23 4 0 -20 27 -39 46 -32 12 4 15 15 12 36 -5 32 9 41 18 12
12 -36 27 -61 35 -56 5 2 6 11 2 20 -4 12 -1 13 20 5 22 -8 28 -6 42 15 18 28
17 55 -3 62 -9 3 -11 -3 -7 -21 5 -20 2 -27 -15 -32 -16 -5 -29 0 -50 20 -20
19 -43 29 -74 32 -40 5 -46 9 -46 28 0 14 -15 36 -36 55 -20 17 -35 33 -33 34
11 10 49 16 49 8 0 -18 60 -35 111 -30 39 4 49 2 45 -8 -3 -8 1 -14 9 -14 22
0 18 28 -5 40 -11 6 -20 20 -20 30 0 11 -7 20 -15 20 -8 0 -15 -4 -15 -10 0
-5 5 -10 10 -10 20 0 9 -28 -13 -32 -27 -5 -84 9 -92 23 -4 6 -1 23 5 40 11
25 18 29 51 29 l39 0 0 85 0 85 -25 -6 c-24 -6 -25 -5 -25 50 0 31 3 56 6 56
3 0 21 -12 40 -26 19 -15 34 -22 34 -16 0 12 -91 78 -102 74 -8 -2 -12 20 -9
51 1 9 -4 17 -12 17 -10 0 -16 13 -19 40 -2 22 -2 40 0 40 1 0 20 -9 42 -20
21 -11 41 -16 44 -11 5 8 -81 51 -103 51 -7 0 -11 24 -11 60 0 38 -4 60 -11
60 -7 0 -9 11 -6 26 3 18 -2 33 -14 45 -19 19 -19 19 8 15 199 -35 253 -41
253 -28 0 4 -54 15 -120 25 -67 9 -125 19 -130 22 -5 3 -12 28 -16 55 -4 28
-10 50 -15 50 -5 0 -9 -5 -9 -11 0 -9 -24 -10 -84 -5 -53 4 -87 2 -91 -4 -4
-6 27 -10 86 -10 l92 0 -6 -27 c-3 -16 -9 -56 -13 -90 -3 -35 -11 -63 -15 -63
-5 0 -9 -27 -9 -60 0 -45 -3 -60 -14 -60 -11 0 -14 -12 -13 -47 2 -34 -3 -53
-15 -65 -14 -14 -17 -14 -22 -2 -3 8 -10 14 -16 14 -6 0 -5 -7 2 -20 7 -11 18
-20 24 -20 6 0 9 -12 6 -30 -2 -17 -10 -30 -18 -30 -10 0 -14 -15 -14 -55 0
-52 -1 -55 -25 -55 -16 0 -25 -6 -25 -16 0 -8 -4 -12 -10 -9 -5 3 -10 2 -10
-4 0 -5 5 -13 10 -16 6 -3 10 -34 10 -67 l0 -61 39 6 c34 4 40 2 50 -21 14
-30 6 -41 -40 -48 -36 -6 -88 22 -61 32 19 9 14 24 -8 24 -15 0 -20 -7 -20
-24 0 -18 -6 -25 -22 -28 -15 -2 -23 -10 -23 -24 -1 -11 -20 -37 -43 -58 -46
-42 -54 -35 -22 16 29 48 25 63 -27 94 -57 33 -96 73 -88 91 3 7 8 20 11 28 4
9 -3 19 -20 26 -14 7 -26 17 -26 24 0 6 -9 21 -20 32 -10 12 -22 33 -26 47 -3
14 -10 26 -15 26 -19 0 -8 28 18 45 26 17 26 18 6 34 -26 21 -50 101 -33 111
8 5 9 13 4 21 -5 8 -14 33 -20 56 -9 35 -8 45 5 58 15 15 14 18 -6 35 -23 18
-32 37 -13 25 7 -4 8 8 3 37 -8 47 -9 105 -2 126 2 8 -4 19 -13 25 -27 18 -54
-13 -38 -42 7 -14 9 -39 4 -69 -5 -35 -9 -42 -14 -27 -4 11 -17 29 -29 39 -11
11 -21 25 -21 33 0 14 -13 16 -47 7 -13 -4 -23 -14 -23 -25 0 -10 -5 -21 -10
-24 -6 -4 -9 -14 -8 -22 4 -22 -19 -28 -24 -6 -2 10 5 31 16 46 14 19 17 30
10 35 -7 4 -15 22 -19 40 -6 29 -4 32 17 31 13 -1 34 -5 48 -10 21 -7 20 -8
-12 -6 -21 2 -38 -1 -38 -5 0 -4 15 -9 33 -9 l32 -1 -30 -7 -30 -7 33 -8 c39
-9 39 -9 44 29 3 27 0 29 -28 31 -16 1 -40 5 -52 8 -12 4 -22 3 -22 -1 0 -5
-7 -18 -16 -29 -15 -18 -15 -17 -10 12 6 36 -4 78 -19 81 -5 1 -62 25 -125 52
-107 47 -157 63 -134 43z m514 -217 c0 -8 -7 -15 -15 -15 -8 0 -15 7 -15 15 0
8 7 15 15 15 8 0 15 -7 15 -15z m-105 -76 c-5 -27 -24 -49 -41 -49 -7 0 -17
-7 -22 -15 -8 -16 -52 -30 -52 -17 0 4 14 15 30 24 24 14 30 24 30 52 0 37 14
49 42 35 10 -6 15 -17 13 -30z m99 -21 c6 -40 5 -48 -8 -48 -17 0 -20 19 -10
69 8 39 10 38 18 -21z m602 15 c-11 -11 -17 4 -9 23 7 18 8 18 11 1 2 -10 1
-21 -2 -24z m-1206 2 c0 -8 -4 -15 -10 -15 -5 0 -10 7 -10 15 0 8 5 15 10 15
6 0 10 -7 10 -15z m510 -40 c-13 -14 -26 -23 -28 -20 -3 3 5 16 18 30 13 14
26 23 28 20 3 -3 -5 -16 -18 -30z m704 -11 c9 -23 8 -24 -14 -24 -11 0 -20 2
-20 4 0 12 13 36 20 36 4 0 11 -7 14 -16z m-1204 -24 c0 -5 -9 -10 -20 -10
-11 0 -20 5 -20 10 0 6 9 10 20 10 11 0 20 -4 20 -10z m606 -43 c8 3 14 1 14
-5 0 -5 -9 -12 -20 -15 -17 -4 -20 0 -19 26 1 23 3 26 6 10 3 -14 9 -20 19
-16z m589 23 c-3 -6 4 -14 17 -19 20 -9 19 -10 -14 -10 -41 -1 -45 2 -25 24
14 16 31 20 22 5z m-1192 -20 c16 -20 16 -20 -26 -20 -28 0 -37 3 -28 9 8 5
20 7 28 4 9 -4 11 0 7 11 -8 21 -2 20 19 -4z m567 -8 c0 -13 -12 -22 -22 -16
-10 6 -1 24 13 24 5 0 9 -4 9 -8z m645 -30 c6 -4 10 -18 10 -32 0 -38 -20 -40
-23 -2 -2 17 -8 32 -13 32 -6 0 -9 -12 -7 -27 2 -20 -2 -28 -12 -28 -10 0 -14
8 -11 25 3 25 17 40 36 40 6 0 15 -4 20 -8z m-1200 -41 c0 -35 -1 -36 -37 -39
-37 -2 -38 -2 -38 32 0 36 9 44 50 43 22 0 25 -4 25 -36z m580 19 c-3 -4 1
-10 7 -12 7 -3 1 -7 -15 -10 -21 -4 -27 -2 -25 11 2 9 7 19 13 23 11 8 27 0
20 -12z m25 -50 c0 -5 -16 -10 -35 -10 -19 0 -35 5 -35 10 0 6 16 10 35 10 19
0 35 -4 35 -10z m603 -17 c-18 -2 -48 -2 -65 0 -18 2 -4 4 32 4 36 0 50 -2 33
-4z m-1184 -7 c-9 -9 -119 -13 -119 -5 0 5 28 9 62 9 34 0 59 -2 57 -4z m557
-5 c-4 -5 4 -7 16 -3 14 3 19 2 14 -6 -10 -16 -46 -15 -46 1 0 9 -3 8 -9 -2
-5 -8 -14 -10 -22 -6 -9 6 -8 10 7 16 27 11 46 11 40 0z m-176 -8 c0 -14 -19
-38 -25 -32 -8 8 5 39 16 39 5 0 9 -3 9 -7z m830 -29 c0 -30 -20 -32 -21 -1
l-2 22 -4 -22 c-5 -28 -23 -30 -23 -3 0 11 -4 20 -10 20 -5 0 -10 -9 -10 -20
0 -28 -20 -25 -21 3 l-2 22 -4 -22 c-6 -31 -23 -29 -23 1 0 23 5 25 48 28 62
4 72 0 72 -28z m-1242 -13 c3 -16 0 -22 -10 -19 -7 3 -12 12 -10 22 2 9 -2 16
-9 16 -6 0 -9 -8 -6 -20 3 -13 0 -20 -9 -20 -8 0 -14 6 -15 13 0 10 -2 10 -6
0 -8 -21 -33 -16 -26 5 9 25 24 33 58 30 23 -2 31 -9 33 -27z m30 -3 c-3 -31
-5 -33 -43 -34 -34 -1 -35 -1 -6 3 30 4 33 7 29 34 -3 20 0 29 9 29 10 0 13
-10 11 -32z m562 -9 c0 -10 -7 -19 -15 -19 -15 0 -21 31 -9 43 11 10 24 -3 24
-24z m-43 -11 c-3 -7 -5 -2 -5 12 0 14 2 19 5 13 2 -7 2 -19 0 -25z m66 17 c4
-8 2 -17 -3 -20 -6 -4 -10 3 -10 14 0 25 6 27 13 6z m-223 -14 c0 -11 5 -23
10 -26 6 -3 10 -11 10 -17 0 -7 -5 -6 -15 2 -27 22 -37 6 -15 -23 24 -30 20
-48 -5 -27 -19 16 -22 13 -29 -25 -6 -28 -6 -28 5 -7 7 12 16 22 21 22 14 0 9
-24 -11 -49 -24 -31 -35 -14 -37 54 -1 28 -5 60 -9 72 -6 18 -3 25 16 32 39
16 59 13 59 -8z m796 -10 c-4 -5 0 -12 6 -14 7 -3 -11 -6 -41 -6 -30 -1 -51 2
-48 6 4 3 20 6 37 5 16 0 32 4 35 9 4 5 8 9 11 9 3 0 3 -4 0 -9z m82 -16 c3
-3 -9 -5 -27 -5 -18 0 -30 4 -26 9 5 10 43 7 53 -4z m-723 -4 c3 -5 1 -12 -5
-16 -5 -3 -10 1 -10 9 0 18 6 21 15 7z m45 -1 c0 -5 -7 -10 -15 -10 -8 0 -15
5 -15 10 0 6 7 10 15 10 8 0 15 -4 15 -10z m40 1 c0 -6 -4 -12 -9 -15 -5 -3
-7 -15 -4 -26 3 -11 1 -20 -5 -20 -5 0 -12 9 -15 20 -3 11 -1 20 4 20 5 0 8 3
8 8 -3 14 1 22 11 22 6 0 10 -4 10 -9z m-612 -8 c-27 -2 -69 -2 -95 0 -27 2
-5 3 47 3 52 0 74 -1 48 -3z m1252 -34 c0 -16 -4 -29 -9 -29 -4 0 -7 10 -6 23
1 12 0 14 -2 5 -2 -10 -11 -18 -19 -18 -11 0 -13 6 -9 20 4 11 2 20 -4 20 -6
0 -11 -12 -11 -26 0 -31 -23 -28 -28 4 -2 12 -8 22 -13 22 -5 0 -9 -8 -7 -17
2 -10 -4 -19 -14 -21 -11 -2 -18 3 -18 13 0 9 -5 13 -10 10 -7 -4 -7 -12 0
-25 13 -24 13 -40 -1 -40 -5 0 -8 4 -4 10 3 5 0 18 -6 28 -23 37 -7 47 80 48
l81 2 0 -29z m-1220 5 c6 -6 8 -18 4 -28 -10 -26 -58 -17 -62 12 -2 12 -8 22
-14 22 -6 0 -8 -3 -5 -6 3 -4 2 -15 -4 -25 -7 -14 -21 -19 -49 -19 -37 0 -40
2 -40 28 l0 29 80 -2 c44 0 85 -6 90 -11z m503 -4 c-5 -19 -23 -29 -23 -12 0
7 20 32 26 32 1 0 0 -9 -3 -20z m-33 -10 c0 -5 -4 -10 -10 -10 -5 0 -10 5 -10
10 0 6 5 10 10 10 6 0 10 -4 10 -10z m70 6 c0 -11 -19 -15 -25 -6 -3 5 1 10 9
10 9 0 16 -2 16 -4z m60 -6 c0 -5 -4 -10 -10 -10 -5 0 -10 5 -10 10 0 6 5 10
10 10 6 0 10 -4 10 -10z m665 -10 c3 -5 -1 -10 -9 -10 -8 0 -18 5 -21 10 -3 6
1 10 9 10 8 0 18 -4 21 -10z m-698 -14 c4 -3 -13 -6 -36 -6 -25 0 -40 4 -36
10 6 10 61 7 72 -4z m483 -16 c0 -5 -7 -10 -15 -10 -8 0 -15 5 -15 10 0 6 7
10 15 10 8 0 15 -4 15 -10z m195 0 c-3 -5 -40 -10 -81 -10 -43 0 -74 4 -74 10
0 6 34 10 81 10 51 0 78 -4 74 -10z m-1205 -10 c0 -6 -47 -10 -120 -10 -73 0
-120 4 -120 10 0 6 47 10 120 10 73 0 120 -4 120 -10z m1087 -23 c6 -4 15 -3
18 3 5 8 11 8 20 0 8 -7 16 -7 19 -2 3 5 20 9 38 8 28 -1 33 -6 36 -29 2 -15
-2 -27 -8 -27 -7 0 -9 8 -5 20 4 11 2 20 -4 20 -6 0 -11 -9 -11 -20 0 -11 -2
-20 -4 -20 -2 0 -12 -3 -20 -6 -14 -5 -15 -2 -6 20 6 17 6 26 0 26 -6 0 -10
-9 -10 -21 0 -12 -5 -19 -12 -16 -7 2 -12 11 -10 21 2 9 -2 16 -9 16 -6 0 -9
-10 -7 -23 3 -17 0 -23 -14 -24 -14 -1 -17 3 -12 23 4 14 2 24 -5 24 -6 0 -11
-11 -11 -25 0 -23 -4 -25 -44 -25 -30 0 -46 5 -50 15 -9 24 5 47 25 42 11 -3
21 -1 24 3 6 10 45 7 62 -3z m-1259 -11 c6 -3 13 -2 17 4 4 6 11 7 18 3 16
-10 58 -10 63 -1 3 5 11 5 17 1 7 -4 21 -7 32 -8 14 0 21 -8 23 -27 2 -16 -2
-28 -8 -28 -7 0 -9 8 -5 19 3 11 1 22 -5 26 -6 4 -10 -4 -10 -19 0 -25 -3 -26
-55 -26 -52 0 -55 1 -55 26 0 14 -4 23 -9 20 -5 -3 -7 -15 -4 -26 3 -11 0 -20
-6 -20 -6 0 -13 11 -17 25 -3 14 -10 22 -15 19 -5 -3 -5 -13 1 -25 10 -17 7
-19 -19 -19 -35 0 -45 12 -37 44 5 19 12 23 34 21 16 -1 34 -5 40 -9z m622
-22 c0 -8 -7 -14 -15 -14 -15 0 -21 21 -9 33 10 9 24 -2 24 -19z m54 -5 c-8
-14 -34 -11 -34 4 0 8 3 17 7 20 9 9 34 -13 27 -24z m46 5 c0 -8 -7 -14 -15
-14 -15 0 -21 21 -9 33 10 9 24 -2 24 -19z m-143 -61 c-3 -3 -11 -2 -17 2 -8
5 -7 11 2 22 12 15 13 14 16 -1 2 -10 1 -20 -1 -23z m98 7 c-6 -9 -46 -21 -42
-12 2 4 7 15 11 26 5 15 9 16 21 6 8 -7 13 -16 10 -20z m81 -8 c-10 -10 -29
15 -21 28 6 9 10 8 17 -4 6 -10 7 -20 4 -24z m-136 13 c0 -8 -4 -15 -9 -15
-13 0 -22 16 -14 24 11 11 23 6 23 -9z m100 0 c0 -8 -7 -15 -15 -15 -8 0 -15
7 -15 15 0 8 7 15 15 15 8 0 15 -7 15 -15z m560 3 c0 -4 -40 -8 -90 -8 -57 0
-90 4 -90 11 0 7 31 9 90 8 50 -2 90 -6 90 -11z m150 3 c0 -5 -31 -9 -70 -10
-42 -1 -70 3 -70 9 0 6 29 10 70 10 39 0 70 -4 70 -9z m-1214 -8 c-11 -12
-336 -15 -336 -3 0 6 62 10 172 10 94 0 168 -3 164 -7z m922 -25 c9 -9 15 -9
24 0 8 8 15 8 24 1 7 -6 19 -7 26 -3 7 4 59 9 115 10 115 1 121 -3 108 -72
l-6 -34 -166 0 c-92 0 -164 3 -161 6 3 3 74 5 158 5 109 0 152 3 155 12 9 27
9 62 0 62 -5 0 -10 -13 -10 -30 0 -20 -5 -30 -15 -30 -10 0 -15 10 -15 32 0
18 -4 33 -10 33 -5 -1 -9 -16 -7 -35 3 -27 0 -35 -13 -35 -11 0 -16 8 -15 23
3 36 1 47 -11 47 -6 0 -9 -14 -7 -32 2 -24 -1 -33 -12 -33 -11 0 -14 9 -12 33
1 23 -2 32 -13 32 -13 0 -15 -7 -9 -36 6 -32 4 -36 -12 -32 -13 2 -19 12 -19
30 0 15 -4 27 -10 27 -5 0 -9 -14 -7 -30 3 -25 0 -30 -15 -27 -12 2 -18 12
-18 28 0 14 -4 25 -10 25 -5 0 -9 -12 -7 -27 3 -23 -1 -28 -19 -28 -16 0 -20
5 -16 20 3 11 1 20 -4 20 -5 0 -9 -9 -9 -20 0 -11 -4 -20 -10 -20 -5 0 -10 17
-10 38 0 51 13 65 38 40z m-1082 -10 c4 -4 13 -3 21 4 10 8 17 8 25 0 8 -8 15
-9 25 -1 9 9 17 8 28 -1 10 -9 15 -9 15 -1 0 19 29 12 40 -9 6 -11 9 -35 7
-53 -3 -30 -6 -32 -46 -35 -53 -4 -71 10 -71 55 0 23 -4 33 -12 30 -8 -2 -12
-16 -10 -35 3 -24 0 -32 -13 -32 -13 0 -16 8 -13 33 2 21 -1 32 -9 32 -7 0
-13 -3 -13 -7 0 -5 0 -21 0 -37 0 -28 3 -30 43 -34 23 -2 -12 -4 -77 -5 -66
-1 -117 0 -114 3 3 3 30 6 61 6 52 1 55 2 59 28 5 33 0 51 -14 51 -5 0 -8 -15
-6 -32 2 -24 -1 -33 -12 -33 -10 0 -15 10 -15 30 0 30 -16 47 -24 24 -2 -6 1
-9 6 -6 5 3 8 -6 5 -24 -2 -16 -10 -29 -18 -29 -15 0 -17 10 -14 48 1 12 -3
22 -9 22 -6 0 -10 -3 -10 -7 3 -19 -1 -66 -6 -62 -9 10 -12 54 -4 70 6 12 25
15 87 15 44 -1 84 -4 88 -8z m722 -3 c23 -5 32 -12 30 -23 -5 -26 -38 -28 -38
-3 0 20 -5 21 -110 21 -60 0 -110 4 -110 9 0 10 179 7 228 -4z m-238 -23 c0
-10 5 -23 12 -30 7 -7 8 -12 3 -12 -4 0 0 -9 9 -19 11 -12 14 -21 7 -26 -14
-8 -33 3 -26 16 4 5 2 9 -4 9 -5 0 -8 9 -6 20 2 12 -2 20 -10 20 -17 0 -28 17
-20 30 10 17 35 11 35 -8z m50 -8 c0 -9 -7 -14 -17 -12 -25 5 -28 28 -4 28 12
0 21 -6 21 -16z m38 4 c-6 -18 -28 -21 -28 -4 0 9 7 16 16 16 9 0 14 -5 12
-12z m42 -4 c0 -17 -22 -14 -28 4 -2 7 3 12 12 12 9 0 16 -7 16 -16z m48 4 c9
-9 12 -9 12 0 0 7 7 12 15 12 8 0 15 -7 15 -16 0 -11 -9 -14 -37 -12 -20 2
-38 9 -41 16 -5 15 20 16 36 0z m-1 -29 c57 -1 71 -4 66 -15 -3 -8 -9 -14 -14
-14 -4 0 -6 -7 -3 -15 4 -9 0 -15 -10 -15 -21 0 -20 26 2 39 11 7 12 11 4 11
-7 0 -20 -7 -29 -15 -14 -14 -14 -18 1 -34 21 -23 20 -31 -5 -31 -11 0 -19 5
-17 12 2 6 -5 21 -16 32 l-20 20 24 7 c16 4 -3 7 -48 8 -40 1 -71 5 -68 10 3
4 18 7 33 5 16 -2 60 -4 100 -5z m-191 -48 c-4 -6 -14 -11 -22 -11 -12 0 -12
3 -2 20 7 11 16 16 21 11 5 -5 6 -14 3 -20z m94 9 c0 -11 -4 -20 -10 -20 -5 0
-10 -7 -10 -15 0 -8 -7 -15 -15 -15 -19 0 -19 9 0 34 12 16 12 22 2 28 -8 5
-4 8 11 8 15 0 22 -6 22 -20z m58 -10 c12 -16 22 -32 22 -35 0 -2 -18 -4 -40
-3 -43 1 -49 10 -24 35 13 13 13 17 2 24 -10 7 -10 9 3 9 8 0 25 -13 37 -30z
m142 -1 c0 -12 -27 -11 -35 1 -11 17 5 32 21 19 8 -6 14 -15 14 -20z m400 2
c0 -3 -4 -12 -9 -20 -8 -12 -12 -12 -25 -2 -23 19 -20 29 9 29 14 0 25 -3 25
-7z m30 -26 c0 -36 -5 -41 -29 -26 -11 7 -10 13 5 35 11 14 20 26 22 26 1 0 2
-16 2 -35z m30 -150 c0 -117 -4 -185 -10 -185 -6 0 -10 66 -10 178 0 157 3
192 17 192 2 0 3 -83 3 -185z m40 134 c0 -4 -7 -9 -15 -13 -12 -4 -15 3 -15
32 l1 37 14 -25 c8 -14 14 -28 15 -31z m28 34 c-5 -25 -28 -28 -28 -4 0 12 6
21 16 21 9 0 14 -7 12 -17z m-1348 0 c0 -5 -5 -15 -10 -23 -9 -13 -11 -13 -20
0 -15 22 -12 30 10 30 11 0 20 -3 20 -7z m26 -25 c-3 -18 -5 -35 -5 -37 -1 -3
-6 0 -12 6 -11 11 -2 63 12 63 5 0 7 -15 5 -32z m55 -354 c18 -19 20 -27 11
-36 -9 -9 -12 -7 -12 10 0 12 -4 22 -10 22 -5 0 -10 -9 -10 -20 0 -11 -6 -20
-14 -20 -8 0 -13 9 -12 24 0 14 6 22 14 19 6 -3 12 0 12 6 0 6 -4 11 -10 11
-6 0 -9 68 -8 188 l1 187 8 -184 c7 -171 9 -185 30 -207z m14 326 c-11 -19
-23 -10 -27 20 -3 17 -2 33 1 35 8 9 33 -44 26 -55z m45 56 c0 -11 -13 -36
-19 -36 -3 0 -12 9 -19 20 -11 18 -10 20 13 20 14 0 25 -2 25 -4z m408 -24 c4
-14 -34 -16 -42 -3 -6 10 13 21 28 17 6 -1 12 -8 14 -14z m250 0 c2 -7 -3 -12
-12 -12 -9 0 -16 7 -16 16 0 17 22 14 28 -4z m62 3 c10 -13 9 -15 -9 -15 -12
0 -21 6 -21 15 0 8 4 15 9 15 5 0 14 -7 21 -15z m-417 -63 c5 -7 16 -11 23 -8
7 3 16 1 19 -5 4 -5 -7 -8 -26 -7 -21 2 -36 -3 -42 -14 -10 -14 -12 -13 -24 9
-17 32 -16 43 1 43 8 0 17 8 21 18 7 15 8 15 13 -3 2 -11 9 -26 15 -33z m261
36 c72 0 124 -2 116 -5 -8 -3 -19 -11 -23 -17 -6 -8 -10 -7 -14 2 -2 6 -13 12
-24 12 -14 0 -19 -7 -19 -25 0 -15 -6 -25 -15 -25 -9 0 -12 6 -9 15 4 10 0 15
-11 15 -9 0 -13 -5 -10 -11 4 -6 -2 -13 -14 -16 -12 -3 -21 -10 -21 -17 0 -6
-5 -3 -11 7 -6 9 -14 15 -20 12 -5 -4 -9 1 -9 9 0 9 -7 16 -15 16 -9 0 -12 -6
-8 -16 4 -12 2 -15 -8 -12 -8 2 -15 14 -17 26 -2 14 -11 22 -23 22 -11 0 -17
-5 -14 -10 4 -6 11 -8 16 -5 5 4 9 1 9 -4 0 -6 -6 -11 -12 -12 -7 0 -4 -4 7
-9 17 -7 14 -9 -13 -9 -18 -1 -40 6 -49 15 -9 8 -22 13 -29 10 -8 -3 -14 -4
-14 -2 0 3 -3 11 -6 20 -5 12 5 16 53 18 32 2 62 1 67 -1 4 -2 67 -3 140 -3z
m211 -10 c24 -23 24 -23 4 -47 -10 -13 -19 -18 -19 -12 0 6 -17 11 -41 11 -24
0 -38 4 -34 10 3 6 -1 10 -10 10 -9 0 -13 5 -10 10 4 6 10 8 15 5 5 -3 12 1
17 9 4 7 17 16 28 19 11 2 21 5 23 6 2 0 14 -9 27 -21z m-121 -49 c-3 -5 18
-9 45 -9 28 0 51 -4 51 -9 0 -13 -207 -14 -215 -1 -4 6 6 10 23 10 16 0 43 7
58 15 21 11 24 15 11 15 -10 0 -15 5 -12 11 5 7 13 4 26 -7 10 -9 16 -21 13
-25z m512 -27 c-2 -4 -1 -14 5 -22 6 -10 9 -11 9 -2 0 6 5 12 10 12 20 0 10
-47 -15 -70 l-25 -23 0 74 c1 55 3 70 11 56 5 -9 8 -21 5 -25z m-666 9 c0 -5
-50 -10 -111 -10 -71 -1 -108 2 -104 9 8 13 215 13 215 1z m-284 -62 c4 -23
12 -39 20 -39 8 0 14 -4 14 -10 0 -5 -6 -10 -13 -10 -15 0 -40 38 -32 50 3 5
1 11 -5 15 -5 3 -10 15 -10 26 0 34 20 10 26 -32z m314 37 c0 -9 -9 -14 -20
-13 -22 1 -27 13 -7 20 21 9 27 7 27 -7z m320 0 c0 -8 -4 -17 -9 -20 -5 -3
-12 -22 -15 -41 -4 -22 -13 -35 -22 -35 -21 0 -15 81 6 88 13 5 13 3 1 -12 -8
-9 -11 -19 -9 -22 3 -3 12 9 19 25 15 33 29 41 29 17z m-540 -10 c0 -6 5 -4
10 4 8 13 10 12 10 -2 0 -13 -7 -17 -25 -16 -26 2 -36 25 -10 25 8 0 15 -5 15
-11z m37 -8 c-3 -8 -6 -5 -6 6 -1 11 2 17 5 13 3 -3 4 -12 1 -19z m20 0 c-3
-8 -6 -5 -6 6 -1 11 2 17 5 13 3 -3 4 -12 1 -19z m20 0 c-3 -8 -6 -5 -6 6 -1
11 2 17 5 13 3 -3 4 -12 1 -19z m93 9 c0 -5 -16 -7 -35 -4 -20 3 -36 0 -39 -7
-2 -6 -5 -3 -5 7 -1 15 6 17 39 15 22 -1 40 -6 40 -11z m90 5 c0 -5 -7 -9 -15
-9 -8 0 -15 4 -15 9 0 4 7 8 15 8 8 0 15 -4 15 -8z m110 -6 c0 -9 -11 -12 -32
-11 -46 4 -48 4 -48 13 0 4 18 8 40 9 28 2 40 -1 40 -11z m80 0 c0 -7 -15 -12
-35 -12 -20 0 -35 5 -35 12 0 7 15 12 35 12 20 0 35 -5 35 -12z m-515 -16 c3
-5 2 -17 -3 -26 -8 -14 -10 -12 -14 10 -5 26 5 35 17 16z m275 -31 c0 -4 -11
-10 -24 -13 -14 -3 -28 -16 -32 -28 -9 -29 18 -48 68 -48 27 0 38 -4 38 -15 0
-21 -32 -35 -80 -35 -92 0 -133 -57 -94 -131 15 -30 17 -31 67 -24 95 11 125
10 145 -8 10 -9 25 -17 32 -17 9 0 7 6 -6 19 -30 27 -59 41 -88 41 -15 0 -30
8 -36 20 -13 24 -6 40 17 40 12 0 13 -3 4 -14 -9 -11 -9 -16 -1 -21 16 -10 33
9 28 31 -2 14 -12 19 -38 19 -32 0 -35 -3 -38 -33 -2 -22 2 -34 12 -38 28 -11
17 -24 -19 -24 -60 0 -84 71 -36 107 9 7 33 13 54 13 114 1 152 83 42 92 -28
2 -41 8 -43 21 -2 12 3 17 18 17 23 0 41 31 22 38 -28 9 0 17 48 13 37 -2 53
-8 56 -20 3 -9 10 -24 16 -35 6 -12 6 -22 -1 -29 -15 -15 -14 -60 1 -75 17
-17 39 -15 32 3 -4 8 -1 15 5 15 15 0 14 -27 -4 -75 -21 -60 -19 -143 6 -184
23 -38 18 -52 -10 -27 -11 10 -37 20 -58 23 -32 4 -45 0 -70 -21 l-32 -27 -25
26 c-36 36 -83 37 -129 4 -36 -26 -45 -18 -18 17 26 33 28 116 6 190 -17 57
-19 74 -5 74 5 0 7 -7 4 -15 -10 -26 26 -17 38 10 8 19 8 31 -1 52 -8 18 -9
29 -1 37 5 5 10 20 10 32 0 21 6 23 53 26 47 3 66 -4 67 -23z m-236 6 c3 -8 1
-15 -4 -15 -24 0 -7 -16 18 -17 15 -1 21 1 15 4 -7 2 -13 9 -13 15 0 20 25 0
26 -21 1 -15 -3 -20 -13 -17 -8 3 -21 6 -28 6 -17 0 -38 36 -30 50 9 15 22 12
29 -5z m66 11 c0 -3 -4 -8 -10 -11 -5 -3 -10 -1 -10 4 0 6 5 11 10 11 6 0 10
-2 10 -4z m32 -21 c-4 -25 -16 -32 -26 -16 -9 13 4 41 19 41 8 0 10 -9 7 -25z
m303 7 c7 -19 -17 -35 -27 -19 -12 19 -9 34 7 34 8 0 17 -7 20 -15z m40 8
c-27 -12 -35 -12 -35 0 0 6 12 10 28 9 24 0 25 -1 7 -9z m55 -17 c0 -22 -2
-25 -10 -13 -8 13 -10 12 -10 -2 0 -11 -8 -18 -19 -18 -10 0 -24 -7 -31 -15
-7 -8 -16 -13 -20 -10 -4 3 -11 -2 -14 -11 -4 -9 -9 -15 -12 -12 -9 10 19 59
32 54 7 -3 14 4 17 15 3 10 10 19 17 19 6 0 8 -4 5 -10 -3 -5 -2 -10 3 -10 5
0 12 9 15 20 8 30 27 24 27 -7z m-407 -63 c3 -11 1 -20 -5 -20 -5 0 -6 -4 -3
-10 3 -5 -3 -10 -14 -10 -29 0 -30 -17 -8 -94 21 -75 18 -147 -7 -175 -7 -9
-15 -22 -18 -30 -2 -8 -14 -15 -25 -16 -14 -1 -19 3 -16 12 3 7 10 10 16 6 7
-4 8 0 4 11 -5 13 -3 17 6 13 34 -13 53 111 27 179 -7 16 -15 47 -19 69 -7 37
-6 40 16 41 33 2 42 13 21 25 -10 5 -15 16 -11 25 7 18 28 3 36 -26z m-57 9
c8 -6 14 -16 14 -21 0 -6 -7 -5 -15 2 -8 7 -21 10 -30 7 -8 -4 -17 -1 -21 5
-4 7 -9 6 -14 -2 -8 -13 -30 -6 -30 9 0 12 82 12 96 0z m494 1 c0 -3 -9 -16
-19 -29 -19 -25 -44 -22 -34 4 6 17 -22 21 -32 5 -3 -5 0 -10 7 -10 9 0 9 -3
-2 -10 -8 -5 -13 -10 -10 -11 3 0 15 -2 27 -3 13 -2 26 -6 30 -10 10 -9 -18
-27 -34 -21 -16 5 -43 -89 -43 -150 0 -53 14 -85 36 -85 8 0 12 -4 9 -10 -3
-5 -2 -10 3 -10 6 0 12 -6 15 -14 4 -11 0 -13 -15 -11 -25 5 -20 -1 -46 56
-26 53 -27 88 -7 155 21 71 20 104 -5 104 -11 0 -20 -5 -20 -11 0 -5 -5 -7
-12 -3 -16 10 22 36 44 31 11 -3 15 0 11 10 -3 8 0 19 7 23 14 9 90 9 90 0z
m-531 -29 c8 -5 9 -11 3 -15 -14 -8 -43 4 -36 15 7 11 15 11 33 0z m13 -53
c-9 -9 -15 -9 -24 0 -10 10 -10 15 2 22 20 12 38 -6 22 -22z m-150 -22 c5 -38
3 -96 -4 -96 -9 0 -9 1 -12 55 -1 22 -5 46 -9 52 -6 9 -3 11 7 7 9 -3 17 -11
18 -18z m772 -8 c-1 -18 -3 -37 -3 -41 -1 -5 -5 -5 -11 -2 -14 9 -13 48 2 63
16 16 16 16 12 -20z m-604 -3 c0 -8 -6 -15 -14 -15 -17 0 -28 14 -19 24 12 12
33 6 33 -9z m450 0 c0 -8 -7 -15 -15 -15 -8 0 -15 7 -15 15 0 8 7 15 15 15 8
0 15 -7 15 -15z m368 3 c17 -17 15 -38 -4 -38 -10 0 -14 6 -11 15 4 8 2 17 -3
20 -6 4 -10 -3 -10 -14 0 -12 -4 -21 -10 -21 -14 0 -12 37 3 43 19 8 22 8 35
-5z m48 -36 c-10 -10 -29 15 -21 28 6 9 10 8 17 -4 6 -10 7 -20 4 -24z m-1300
-9 c-11 -11 -19 6 -11 24 8 17 8 17 12 0 3 -10 2 -21 -1 -24z m133 3 c8 -9 10
-28 5 -50 -8 -48 11 -93 45 -104 l26 -9 -39 -18 c-42 -20 -68 -13 -75 21 -4
25 -21 34 -47 28 -12 -3 -25 -1 -28 5 -5 7 4 11 24 11 21 0 38 8 51 23 23 27
24 41 4 61 -16 16 -10 46 10 46 7 0 18 -6 24 -14z m200 -50 c0 -19 -1 -19 -10
4 -6 14 -17 29 -25 33 -8 5 -11 13 -8 19 10 16 44 -29 43 -56z m111 49 c0 -8
-7 -15 -15 -15 -16 0 -20 12 -8 23 11 12 23 8 23 -8z m428 -3 c2 -7 -3 -12
-12 -12 -9 0 -16 7 -16 16 0 17 22 14 28 -4z m122 9 c0 -5 -7 -14 -15 -21 -8
-7 -15 -17 -15 -22 0 -6 9 0 19 13 11 13 22 21 26 17 9 -9 -27 -57 -42 -58
-17 0 -17 34 -1 60 13 21 28 27 28 11z m208 -4 c8 -10 6 -16 -9 -25 -24 -15
-24 -31 0 -59 13 -15 30 -23 51 -23 20 0 29 -4 24 -11 -3 -6 -15 -8 -26 -6
-21 6 -58 -24 -58 -47 0 -21 -31 -24 -70 -8 l-35 14 26 14 c34 17 52 62 44
107 -4 20 -4 40 0 46 9 15 40 14 53 -2z m70 -14 c-10 -2 -26 -2 -35 0 -10 3
-2 5 17 5 19 0 27 -2 18 -5z m-1225 -10 c-7 -2 -21 -2 -30 0 -10 3 -4 5 12 5
17 0 24 -2 18 -5z m264 -24 c7 -13 8 -25 3 -27 -5 -2 -7 -9 -4 -16 3 -7 -4
-12 -16 -12 -12 0 -20 7 -20 18 0 11 5 15 15 12 20 -8 19 6 -2 35 -12 18 -13
23 -2 19 8 -2 19 -15 26 -29z m715 9 c-7 -7 -12 -8 -12 -2 0 14 12 26 19 19 2
-3 -1 -11 -7 -17z m283 -13 c0 -17 -8 -20 -49 -23 -52 -3 -72 7 -62 33 4 13
17 15 58 13 45 -3 53 -6 53 -23z m-1220 -10 c0 -17 -8 -20 -49 -23 -52 -3 -72
7 -62 33 4 13 17 15 58 13 45 -3 53 -6 53 -23z m260 -39 c-15 -43 -15 -50 -1
-71 21 -32 21 -32 -11 -31 -27 1 -28 3 -25 46 2 25 7 47 12 50 4 3 11 20 15
38 4 21 11 30 16 25 6 -6 4 -28 -6 -57z m105 49 c0 -8 -7 -15 -15 -15 -16 0
-20 12 -8 23 11 12 23 8 23 -8z m418 -2 c2 -8 -5 -13 -17 -13 -12 0 -21 6 -21
16 0 18 31 15 38 -3z m94 -53 c14 0 9 -45 -9 -70 -16 -23 -16 -23 3 -16 14 5
16 4 8 -4 -8 -8 -18 -9 -30 -2 -11 5 -25 7 -31 5 -16 -6 -17 13 -2 23 6 3 15
1 19 -6 6 -9 11 -7 19 8 9 16 8 31 -1 62 -7 22 -17 40 -22 40 -4 0 -2 8 5 17
13 15 15 13 23 -20 5 -20 13 -37 18 -37z m48 25 c0 -18 -4 -23 -15 -19 -11 5
-13 2 -9 -10 3 -9 10 -16 14 -16 5 0 6 -9 3 -20 -3 -11 -9 -18 -13 -15 -13 8
-18 69 -6 87 15 25 26 22 26 -7z m-630 -20 c0 -14 -4 -25 -10 -25 -11 0 -14
33 -3 43 11 11 13 8 13 -18z m70 10 c0 -8 -4 -15 -9 -15 -13 0 -22 16 -14 24
11 11 23 6 23 -9z m402 0 c0 -5 -5 -11 -11 -13 -6 -2 -11 4 -11 13 0 9 5 15
11 13 6 -2 11 -8 11 -13z m68 -16 c0 -10 -4 -19 -10 -19 -5 0 -10 12 -10 26 0
14 4 23 10 19 6 -3 10 -15 10 -26z m-897 4 c-7 -2 -19 -2 -25 0 -7 3 -2 5 12
5 14 0 19 -2 13 -5z m276 -35 c0 -13 -3 -17 -6 -10 -2 6 -9 10 -14 6 -5 -3 -9
-1 -9 5 0 8 9 14 28 20 1 1 2 -9 1 -21z m56 3 c3 -5 1 -12 -5 -16 -5 -3 -10 1
-10 9 0 18 6 21 15 7z m33 -50 c3 -8 -1 -12 -9 -9 -7 2 -15 10 -17 17 -3 8 1
12 9 9 7 -2 15 -10 17 -17z"/>
<path d="M1389 1945 c-1 -3 -2 -8 -3 -12 -1 -5 -5 -15 -10 -23 -7 -12 -6 -13
4 -3 13 12 23 43 14 43 -2 0 -5 -2 -5 -5z"/>
<path d="M878 1724 c3 -19 7 -22 13 -12 13 20 11 38 -5 38 -9 0 -12 -8 -8 -26z"/>
<path d="M812 1520 c0 -14 2 -19 5 -12 2 6 2 18 0 25 -3 6 -5 1 -5 -13z"/>
<path d="M850 1521 c0 -25 6 -27 13 -6 4 8 2 17 -3 20 -6 4 -10 -3 -10 -14z"/>
<path d="M940 1516 c0 -9 5 -16 10 -16 6 0 10 4 10 9 0 6 -4 13 -10 16 -5 3
-10 -1 -10 -9z"/>
<path d="M2000 1421 c0 -25 6 -27 13 -6 4 8 2 17 -3 20 -6 4 -10 -3 -10 -14z"/>
<path d="M2040 1418 c0 -19 2 -20 10 -8 13 19 13 30 0 30 -5 0 -10 -10 -10
-22z"/>
<path d="M777 1410 c3 -11 7 -20 9 -20 2 0 4 9 4 20 0 11 -4 20 -9 20 -5 0 -7
-9 -4 -20z"/>
<path d="M896 1422 c-2 -4 -1 -14 5 -22 7 -12 9 -10 9 8 0 23 -5 28 -14 14z"/>
<path d="M936 1422 c-2 -4 -1 -14 5 -22 7 -12 9 -10 9 8 0 23 -5 28 -14 14z"/>
<path d="M1955 1320 c-3 -5 -1 -10 4 -10 6 0 11 5 11 10 0 6 -2 10 -4 10 -3 0
-8 -4 -11 -10z"/>
<path d="M972 1285 c-1 -19 3 -35 8 -35 6 0 10 11 10 25 0 14 0 28 1 32 0 4
-4 9 -9 11 -5 1 -9 -13 -10 -33z"/>
<path d="M1015 1310 c-3 -5 1 -10 9 -10 9 0 16 5 16 10 0 6 -4 10 -9 10 -6 0
-13 -4 -16 -10z"/>
<path d="M1024 1275 c3 -8 -3 -19 -12 -25 -16 -11 -15 -11 1 -6 10 3 21 6 23
6 2 0 4 9 4 20 0 11 -5 20 -11 20 -6 0 -9 -7 -5 -15z"/>
<path d="M1620 1300 c0 -5 5 -10 10 -10 6 0 10 5 10 10 0 6 -4 10 -10 10 -5 0
-10 -4 -10 -10z"/>
<path d="M1240 1130 c0 -5 7 -10 16 -10 8 0 12 5 9 10 -3 6 -10 10 -16 10 -5
0 -9 -4 -9 -10z"/>
<path d="M1338 1153 c6 -2 12 -11 12 -19 0 -8 5 -14 11 -14 6 0 8 7 5 16 -3 9
-6 18 -6 20 0 2 -8 4 -17 3 -11 0 -13 -3 -5 -6z"/>
<path d="M1428 1153 c6 -2 18 -2 25 0 6 3 1 5 -13 5 -14 0 -19 -2 -12 -5z"/>
<path d="M1470 1152 c0 -5 6 -15 13 -21 11 -8 18 -6 32 9 10 11 13 20 7 20 -6
0 -14 -5 -17 -10 -5 -8 -11 -7 -21 1 -8 7 -14 7 -14 1z"/>
<path d="M1548 1153 c7 -3 16 -2 19 1 4 3 -2 6 -13 5 -11 0 -14 -3 -6 -6z"/>
<path d="M1700 1151 c8 -6 18 -7 24 -4 5 3 6 1 2 -5 -7 -11 12 -28 21 -18 10
10 -19 36 -41 36 -17 0 -18 -2 -6 -9z"/>
<path d="M1685 1130 c3 -5 10 -10 16 -10 5 0 9 5 9 10 0 6 -7 10 -16 10 -8 0
-12 -4 -9 -10z"/>
<path d="M1598 1103 c7 -3 16 -2 19 1 4 3 -2 6 -13 5 -11 0 -14 -3 -6 -6z"/>
<path d="M1170 622 c0 -12 19 -26 26 -19 2 2 -2 10 -11 17 -9 8 -15 8 -15 2z"/>
<path d="M900 2171 c0 -5 17 -15 38 -20 20 -5 98 -26 172 -45 118 -31 154 -37
139 -22 -2 2 -74 22 -159 44 -85 22 -163 44 -172 47 -11 4 -18 3 -18 -4z"/>
<path d="M2010 2170 c-14 -5 -77 -23 -140 -40 -63 -18 -119 -36 -125 -41 -14
-14 -4 -12 152 31 81 22 152 40 159 40 7 0 16 5 19 10 7 12 -30 12 -65 0z"/>
<path d="M1793 2063 c-18 -2 -33 -9 -33 -15 0 -6 10 -8 23 -4 12 3 30 6 40 6
9 0 17 5 17 10 0 6 -3 9 -7 8 -5 0 -23 -3 -40 -5z"/>
<path d="M1780 2010 c0 -5 14 -10 30 -10 17 0 30 5 30 10 0 6 -13 10 -30 10
-16 0 -30 -4 -30 -10z"/>
<path d="M970 2000 l-65 -7 88 -1 c57 -1 86 2 82 8 -3 6 -14 9 -23 8 -9 -1
-46 -4 -82 -8z"/>
<path d="M1150 2000 c0 -5 11 -10 24 -10 14 0 28 5 31 10 4 6 -7 10 -24 10
-17 0 -31 -4 -31 -10z"/>
<path d="M2121 2006 c10 -8 159 -14 159 -5 0 5 -37 9 -82 9 -45 0 -79 -2 -77
-4z"/>
<path d="M996 1934 c-66 -13 -84 -19 -75 -28 5 -5 140 22 148 29 11 11 -8 11
-73 -1z"/>
<path d="M1930 1941 c9 -5 45 -12 80 -16 44 -4 60 -3 50 4 -9 5 -45 12 -80 16
-44 4 -60 3 -50 -4z"/>
<path d="M1790 1922 c0 -5 7 -13 16 -16 10 -4 14 -1 12 6 -5 15 -28 23 -28 10z"/>
<path d="M769 1896 c-2 -2 -42 -10 -89 -16 -47 -6 -89 -16 -94 -21 -15 -14 15
-11 143 11 124 22 147 30 84 30 -22 0 -42 -2 -44 -4z"/>
<path d="M988 1858 c-32 -11 -58 -24 -58 -29 0 -9 108 27 125 42 14 13 -2 10
-67 -13z"/>
<path d="M1975 1860 c53 -20 96 -26 80 -12 -13 11 -88 32 -111 31 -11 0 4 -9
31 -19z"/>
<path d="M1920 1812 c0 -7 46 -32 112 -60 5 -2 8 0 8 5 0 5 -25 21 -55 36 -61
30 -65 31 -65 19z"/>
<path d="M1008 1785 c-26 -14 -50 -30 -54 -36 -8 -13 -9 -13 64 20 28 14 52
28 52 33 0 12 -11 9 -62 -17z"/>
<path d="M1825 1785 c16 -13 32 -22 35 -19 7 7 -39 44 -54 44 -6 -1 2 -12 19
-25z"/>
<path d="M2164 1801 c4 -5 24 -12 46 -16 37 -6 40 -9 40 -40 0 -19 6 -35 14
-38 9 -4 16 -23 18 -49 3 -37 7 -44 40 -61 39 -21 51 -44 36 -71 -11 -20 -32
-21 -47 -2 -8 10 -9 16 -1 21 5 3 10 1 10 -5 0 -6 4 -9 10 -5 11 7 2 35 -13
35 -6 0 -19 7 -29 17 -10 9 -21 13 -26 8 -4 -4 -1 -10 6 -12 6 -3 12 -18 12
-34 0 -19 8 -34 24 -44 13 -9 30 -36 38 -60 14 -42 14 -44 -6 -47 -24 -3 -30
-48 -7 -56 9 -3 11 1 6 17 -8 27 15 28 40 1 12 -13 16 -31 13 -60 -4 -47 5
-52 22 -11 9 22 9 38 -1 70 -9 32 -10 44 -1 53 9 9 15 9 24 0 9 -9 8 -12 -7
-12 -18 0 -18 -1 3 -22 12 -12 25 -19 29 -14 4 4 1 11 -7 17 -12 7 -12 11 -2
17 10 7 10 11 -2 21 -22 18 -50 9 -54 -17 -2 -12 -7 -22 -11 -22 -15 0 -20 13
-11 30 7 13 6 20 -5 24 -26 9 -17 50 18 80 20 18 27 31 20 33 -7 3 -13 12 -13
20 0 9 6 13 15 10 8 -4 17 -2 20 3 6 10 1 12 -27 14 -19 1 -48 28 -48 43 0 7
-4 13 -10 13 -5 0 -10 -9 -10 -20 0 -23 -18 -27 -26 -5 -3 8 1 22 10 30 18 18
21 51 6 60 -5 3 -10 1 -10 -4 0 -6 -9 -3 -20 6 -11 10 -20 25 -20 34 0 15 11
13 90 -12 97 -31 110 -34 110 -20 0 5 -12 12 -27 15 -30 7 -142 40 -211 62
-49 16 -76 18 -68 5z"/>
<path d="M1560 1789 c0 -18 68 -257 77 -272 11 -18 36 -49 62 -76 20 -21 24
-34 22 -77 -3 -67 28 -133 78 -168 49 -34 62 -34 51 2 -14 46 -22 62 -31 62
-5 0 -3 -16 5 -35 8 -19 11 -35 6 -35 -13 0 -30 34 -30 58 0 26 27 36 39 14
12 -21 24 -11 15 12 -3 9 -14 16 -24 16 -10 0 -22 9 -25 20 -3 11 -11 20 -16
20 -6 0 -6 -8 1 -20 7 -12 7 -27 2 -37 -5 -10 -7 -25 -4 -33 4 -13 3 -13 -10
0 -22 22 -12 97 14 111 25 13 61 3 38 -11 -8 -5 -11 -12 -7 -16 4 -4 13 -2 19
4 7 7 21 12 33 12 18 1 18 2 -5 15 -17 10 -20 14 -9 15 9 0 26 8 37 18 22 19
39 62 24 62 -6 0 -13 -11 -16 -24 -6 -26 -37 -41 -72 -37 -11 1 -32 -8 -47
-19 -22 -17 -27 -30 -27 -63 -1 -28 -3 -37 -9 -27 -14 25 -22 87 -15 114 5 22
10 25 32 19 17 -4 23 -2 18 6 -4 6 -14 11 -22 11 -19 0 -17 10 7 40 11 14 31
42 45 63 24 36 62 53 50 22 -3 -8 -1 -15 3 -15 15 0 20 28 7 39 -16 14 -66 7
-77 -10 -5 -8 -9 -24 -9 -36 0 -27 -19 -41 -31 -22 -5 8 0 28 14 51 l21 38
-22 16 c-13 9 -32 25 -42 37 -11 11 -20 16 -20 10 0 -6 12 -22 26 -36 23 -23
25 -30 16 -59 -6 -18 -10 -52 -10 -76 0 -23 -2 -45 -6 -49 -8 -9 -46 27 -46
44 0 20 16 15 29 -9 11 -21 11 -21 5 7 -7 39 -11 42 -34 27 -24 -15 -26 -4 -4
26 19 27 12 41 -11 22 -9 -8 -15 -8 -15 -2 0 6 5 14 10 17 6 3 10 15 10 25 0
10 8 24 18 29 9 6 12 11 5 11 -27 0 -43 -14 -54 -48 l-12 -36 -32 117 c-30
111 -45 149 -45 116z"/>
<path d="M1310 1736 c-6 -9 -10 -21 -8 -28 3 -8 9 -4 17 10 15 28 9 39 -9 18z"/>
<path d="M1250 1729 c0 -5 5 -7 10 -4 6 3 10 8 10 11 0 2 -4 4 -10 4 -5 0 -10
-5 -10 -11z"/>
<path d="M1670 1725 c7 -9 15 -13 17 -11 7 7 -7 26 -19 26 -6 0 -6 -6 2 -15z"/>
<path d="M1950 1711 c0 -10 52 -51 65 -51 11 0 -5 19 -35 40 -17 12 -30 17
-30 11z"/>
<path d="M1005 1684 c-16 -13 -25 -24 -19 -24 15 0 61 37 54 43 -3 3 -18 -6
-35 -19z"/>
<path d="M757 1659 c-22 -11 -37 -23 -34 -25 6 -7 77 28 77 38 0 10 2 11 -43
-13z"/>
<path d="M1260 1655 c-8 -9 -8 -15 -2 -15 12 0 26 19 19 26 -2 2 -10 -2 -17
-11z"/>
<path d="M1006 1575 c-3 -8 -1 -15 3 -15 5 0 11 7 15 15 3 8 1 15 -3 15 -5 0
-11 -7 -15 -15z"/>
<path d="M479 1563 c-13 -16 -12 -17 4 -4 9 7 17 15 17 17 0 8 -8 3 -21 -13z"/>
<path d="M554 1565 c-10 -8 -14 -15 -7 -15 19 0 43 11 43 21 0 13 -14 11 -36
-6z"/>
<path d="M1901 1547 c0 -10 -8 -20 -16 -23 -9 -4 -13 -14 -10 -28 4 -16 -4
-26 -30 -43 -22 -14 -37 -18 -41 -11 -8 12 16 29 29 21 5 -3 7 3 5 12 -1 10
-9 20 -16 23 -7 2 -10 -2 -6 -12 4 -12 0 -16 -15 -16 -25 0 -28 -22 -6 -40 12
-10 24 -10 55 -1 21 6 42 17 46 23 5 8 2 9 -9 5 -14 -5 -13 -1 4 22 13 18 19
38 16 57 -2 16 -5 21 -6 11z"/>
<path d="M430 1507 c0 -9 10 -17 23 -19 21 -4 21 -5 -5 -18 -16 -7 -28 -19
-28 -27 0 -18 10 -16 32 4 18 16 19 15 34 -6 12 -17 19 -20 28 -11 8 9 5 16
-11 30 -28 22 -30 33 -4 25 11 -3 22 -1 25 4 8 13 -1 17 -51 26 -35 5 -43 4
-43 -8z"/>
<path d="M2522 1513 c-25 -3 -32 -8 -28 -20 3 -8 6 -24 6 -34 0 -16 6 -20 28
-17 21 2 27 8 26 26 0 12 3 22 8 22 4 0 8 -9 8 -20 0 -11 5 -20 10 -20 6 0 10
7 10 16 0 20 -18 55 -28 52 -4 0 -22 -3 -40 -5z m18 -38 c0 -8 -7 -15 -15 -15
-16 0 -20 12 -8 23 11 12 23 8 23 -8z"/>
<path d="M1153 1481 c-7 -10 -9 -22 -6 -25 6 -6 32 23 33 37 0 14 -15 7 -27
-12z"/>
<path d="M1646 1465 c3 -16 11 -34 17 -40 6 -7 7 0 3 20 -4 17 -12 35 -17 40
-7 7 -8 0 -3 -20z"/>
<path d="M1037 1473 c-4 -3 -7 -11 -7 -17 0 -6 5 -5 12 2 6 6 9 14 7 17 -3 3
-9 2 -12 -2z"/>
<path d="M1945 1470 c3 -5 8 -10 11 -10 2 0 4 5 4 10 0 6 -5 10 -11 10 -5 0
-7 -4 -4 -10z"/>
<path d="M541 1444 c0 -11 3 -14 6 -6 3 7 2 16 -1 19 -3 4 -6 -2 -5 -13z"/>
<path d="M2530 1421 c-14 -4 -25 -12 -24 -19 1 -7 2 -20 3 -30 1 -15 7 -18 31
-14 36 5 40 22 5 22 -14 0 -25 5 -25 10 0 6 11 10 25 10 16 0 25 6 25 15 0 16
-2 17 -40 6z"/>
<path d="M420 1411 c0 -5 10 -11 23 -15 33 -9 37 -8 37 9 0 10 -10 15 -30 15
-16 0 -30 -4 -30 -9z"/>
<path d="M541 1406 c-11 -13 -8 -15 16 -13 25 2 28 -1 25 -23 -8 -57 -5 -101
7 -112 11 -11 12 -6 7 25 -6 31 -3 41 18 62 31 31 50 33 41 4 -5 -15 -3 -20 6
-17 8 3 15 14 17 26 3 18 -2 22 -27 22 -16 0 -33 -6 -38 -12 -5 -9 -9 -3 -13
17 -6 34 -39 46 -59 21z"/>
<path d="M1115 1410 c-3 -5 -1 -10 4 -10 6 0 11 5 11 10 0 6 -2 10 -4 10 -3 0
-8 -4 -11 -10z"/>
<path d="M1865 1410 c3 -5 8 -10 11 -10 2 0 4 5 4 10 0 6 -5 10 -11 10 -5 0
-7 -4 -4 -10z"/>
<path d="M490 1400 c0 -5 5 -10 10 -10 6 0 10 5 10 10 0 6 -4 10 -10 10 -5 0
-10 -4 -10 -10z"/>
<path d="M1660 1399 c0 -5 4 -17 9 -27 6 -9 17 -50 26 -89 10 -40 21 -73 26
-73 10 0 6 22 -16 97 -7 23 -10 52 -8 66 4 18 0 26 -16 30 -12 3 -21 1 -21 -4z"/>
<path d="M1750 1396 c0 -8 5 -18 10 -21 6 -3 10 1 10 9 0 8 -4 18 -10 21 -5 3
-10 -1 -10 -9z"/>
<path d="M415 1370 c-7 -11 0 -13 28 -11 10 2 17 -5 17 -14 0 -11 -7 -15 -22
-13 -11 2 -23 -3 -25 -9 -3 -9 7 -13 31 -13 34 0 36 2 36 35 0 32 -2 35 -29
35 -17 0 -33 -4 -36 -10z"/>
<path d="M534 1366 c-10 -8 -16 -17 -13 -20 3 -4 17 2 30 13 27 23 13 28 -17
7z"/>
<path d="M1080 1349 c0 -5 5 -7 10 -4 6 3 10 8 10 11 0 2 -4 4 -10 4 -5 0 -10
-5 -10 -11z"/>
<path d="M2517 1333 c-4 -3 -7 -17 -7 -31 0 -17 4 -23 15 -18 8 3 15 1 15 -4
0 -6 7 -10 15 -10 10 0 15 11 15 35 0 30 -3 35 -23 35 -13 0 -27 -3 -30 -7z
m43 -28 c0 -6 -9 -11 -20 -11 -11 0 -20 6 -20 13 0 6 9 11 20 10 11 -1 20 -6
20 -12z"/>
<path d="M2300 1289 c0 -6 5 -7 10 -4 6 3 10 2 10 -4 0 -6 7 -8 15 -5 17 7 19
-9 5 -37 -6 -11 -8 -35 -4 -54 5 -30 10 -35 33 -35 19 0 32 9 44 30 10 16 17
35 16 42 -4 31 2 48 16 48 8 0 15 5 15 10 0 18 -26 10 -48 -15 -14 -16 -22
-39 -22 -61 0 -28 -3 -35 -17 -32 -24 4 -29 39 -9 50 9 5 13 14 9 21 -4 7 -7
21 -8 32 0 15 -7 20 -32 22 -18 1 -33 -3 -33 -8z"/>
<path d="M392 1258 c3 -31 6 -33 46 -36 l42 -3 0 35 c0 33 -2 36 -30 36 -26 0
-30 -4 -30 -26 0 -15 -4 -23 -10 -19 -6 4 -8 15 -5 26 4 11 2 19 -5 19 -7 0
-10 -13 -8 -32z m66 1 c-2 -6 -8 -10 -13 -10 -5 0 -11 4 -13 10 -2 6 4 11 13
11 9 0 15 -5 13 -11z"/>
<path d="M630 1280 c-8 -5 -9 -16 -5 -30 5 -15 4 -20 -4 -16 -6 4 -11 2 -11
-4 0 -6 7 -13 15 -16 8 -4 15 -17 15 -30 0 -19 -5 -24 -24 -24 -28 0 -37 17
-24 42 6 13 2 25 -14 43 -22 25 -48 33 -48 15 0 -5 7 -10 15 -10 8 0 15 -6 16
-12 5 -73 20 -98 60 -98 24 0 29 5 34 34 4 19 2 43 -4 54 -16 31 -13 42 10 39
12 -1 23 3 25 8 5 12 -38 16 -56 5z"/>
<path d="M2513 1249 c-6 -6 -9 -18 -6 -26 4 -10 0 -13 -12 -11 -10 2 -20 -3
-22 -9 -3 -9 7 -13 30 -13 20 0 42 -3 51 -6 13 -5 16 1 16 30 0 20 -4 36 -9
36 -5 0 -15 2 -23 5 -7 3 -19 0 -25 -6z m37 -29 c0 -5 -7 -10 -15 -10 -8 0
-15 5 -15 10 0 6 7 10 15 10 8 0 15 -4 15 -10z"/>
<path d="M1152 1225 c-14 -31 -15 -35 -4 -35 8 0 32 43 32 55 0 15 -19 1 -28
-20z"/>
<path d="M2496 1154 c-9 -23 -7 -44 3 -44 5 0 12 10 14 23 4 18 5 17 6 -6 2
-42 35 -33 39 11 3 30 1 32 -26 32 -18 0 -32 -6 -36 -16z m54 -18 c0 -3 -4 -8
-10 -11 -5 -3 -10 -1 -10 4 0 6 5 11 10 11 6 0 10 -2 10 -4z"/>
<path d="M458 1143 c-17 -3 -28 -11 -28 -20 0 -15 12 -15 53 2 30 13 18 -10
-13 -23 -42 -19 -39 -42 6 -42 21 0 33 -4 29 -10 -3 -5 -17 -10 -31 -10 -15 0
-24 -6 -24 -16 0 -11 5 -14 18 -9 9 3 30 9 45 12 40 8 34 46 -8 54 l-30 6 26
12 c19 9 25 19 22 32 -5 19 -12 20 -65 12z"/>
<path d="M2581 1124 c0 -11 3 -14 6 -6 3 7 2 16 -1 19 -3 4 -6 -2 -5 -13z"/>
<path d="M1035 1110 c3 -5 -1 -10 -9 -10 -9 0 -16 -4 -16 -10 0 -14 70 -24 83
-11 8 8 5 11 -11 11 -13 0 -25 7 -28 15 -4 8 -10 15 -16 15 -5 0 -6 -4 -3 -10z"/>
<path d="M1940 1110 c0 -5 -12 -10 -27 -10 -26 -1 -26 -2 -10 -14 18 -14 63
-10 73 6 4 6 0 14 -7 19 -19 12 -29 11 -29 -1z"/>
<path d="M560 1099 c0 -5 5 -7 10 -4 6 3 10 8 10 11 0 2 -4 4 -10 4 -5 0 -10
-5 -10 -11z"/>
<path d="M2260 1100 c11 -9 12 -13 3 -17 -21 -8 -15 -20 16 -33 21 -8 35 -9
48 -1 16 9 15 10 -7 11 -16 0 -29 8 -35 22 -6 12 -17 23 -25 26 -13 3 -13 2 0
-8z"/>
<path d="M2481 1078 c-10 -26 9 -48 41 -48 25 0 23 21 -2 27 -15 4 -19 11 -15
24 9 27 -14 24 -24 -3z"/>
<path d="M2465 1020 c-4 -7 -2 -16 6 -21 21 -13 3 -22 -20 -9 -17 8 -21 8 -21
-3 0 -15 78 -43 88 -31 4 4 1 9 -5 11 -18 6 -16 23 2 23 8 0 15 5 15 11 0 6
-9 9 -20 6 -12 -3 -23 1 -29 10 -6 12 -10 13 -16 3z"/>
<path d="M488 999 c-39 -22 -8 -81 31 -59 24 12 26 23 11 51 -12 22 -18 23
-42 8z m32 -30 c0 -5 -7 -9 -15 -9 -15 0 -20 12 -9 23 8 8 24 -1 24 -14z"/>
<path d="M2410 950 c0 -5 7 -10 15 -10 18 0 19 -12 3 -29 -11 -10 -9 -15 6
-27 29 -21 45 -17 56 12 13 34 15 32 -26 49 -43 18 -54 19 -54 5z m70 -39 c0
-13 -12 -20 -25 -14 -8 2 -11 11 -9 18 6 14 34 10 34 -4z"/>
<path d="M513 920 c-13 -5 -23 -14 -23 -20 0 -13 27 -13 35 0 7 12 25 4 25
-11 0 -5 -6 -9 -14 -9 -16 0 -31 -18 -23 -26 5 -6 57 17 57 25 0 3 -3 16 -6
29 -7 24 -16 26 -51 12z"/>
<path d="M2246 884 c-8 -22 12 -26 39 -8 14 9 25 17 25 18 0 10 -60 0 -64 -10z"/>
<path d="M700 880 c0 -15 38 -32 45 -20 3 5 3 15 0 20 -8 13 -45 13 -45 0z"/>
<path d="M1948 883 c-22 -5 -23 -19 -2 -27 25 -9 34 -7 34 8 0 18 -10 24 -32
19z"/>
<path d="M2400 849 c-6 -11 -9 -25 -6 -32 2 -7 8 -2 11 11 8 24 13 26 32 14 8
-5 9 -13 3 -22 -8 -12 -10 -11 -10 5 -1 19 -1 19 -11 2 -8 -14 -8 -22 1 -30 8
-9 16 -6 30 13 25 32 25 35 -5 48 -33 15 -32 16 -45 -9z"/>
<path d="M545 839 c-4 -5 -4 -22 -1 -35 5 -17 3 -23 -4 -19 -5 3 -10 13 -10
21 0 8 -4 14 -10 14 -15 0 -12 -27 5 -44 14 -14 19 -14 50 1 38 18 40 24 25
54 -11 20 -45 26 -55 8z m40 -18 c7 -12 -12 -24 -25 -16 -11 7 -4 25 10 25 5
0 11 -4 15 -9z"/>
<path d="M606 774 c-20 -14 -34 -30 -30 -35 4 -6 11 -6 20 2 16 13 20 -1 4
-17 -5 -5 -6 -15 -1 -23 7 -11 10 -9 15 7 4 11 17 23 29 25 22 4 22 4 -2 12
l-24 8 23 17 c37 28 7 31 -34 4z"/>
<path d="M2326 783 c-12 -12 -6 -21 31 -43 l37 -22 18 24 c9 13 18 26 18 31 0
13 -19 7 -28 -10 -9 -15 -12 -14 -39 5 -17 12 -33 19 -37 15z"/>
<path d="M670 766 c0 -2 8 -10 18 -17 15 -13 16 -12 3 4 -13 16 -21 21 -21 13z"/>
<path d="M642 699 c-23 -18 -23 -19 -5 -43 22 -31 25 -31 48 -6 21 23 13 39
-10 20 -22 -19 -31 -4 -11 19 23 26 7 34 -22 10z"/>
<path d="M2356 697 c3 -10 9 -15 12 -12 3 3 0 11 -7 18 -10 9 -11 8 -5 -6z"/>
<path d="M2290 683 c0 -3 8 -15 18 -26 16 -20 16 -20 -3 -13 -11 4 -22 8 -25
9 -3 1 -7 -2 -10 -8 -3 -5 10 -14 28 -20 17 -5 32 -15 32 -23 0 -7 5 -10 10
-7 16 10 12 34 -11 66 -19 27 -39 38 -39 22z"/>
<path d="M700 636 c-26 -29 -21 -56 12 -56 22 1 22 1 5 14 -20 15 -8 30 16 20
11 -4 13 1 10 20 -7 32 -13 32 -43 2z"/>
<path d="M817 630 c6 -7 9 -20 6 -29 -4 -13 -3 -13 5 -2 5 7 15 10 21 7 6 -4
11 -5 11 -3 0 3 -12 13 -27 22 -16 10 -23 12 -16 5z"/>
<path d="M2227 611 c-9 -10 -15 -25 -11 -34 7 -20 35 -30 48 -17 5 5 15 10 21
10 5 0 1 -7 -9 -15 -22 -17 -17 -29 7 -19 28 11 29 36 0 66 -31 32 -32 33 -56
9z m38 -20 c7 -12 -12 -24 -25 -16 -11 7 -4 25 10 25 5 0 11 -4 15 -9z"/>
<path d="M767 613 c-12 -12 -7 -22 8 -17 8 4 15 10 15 15 0 11 -14 12 -23 2z"/>
<path d="M765 569 c-4 -5 1 -19 11 -30 9 -10 14 -19 9 -19 -4 0 -14 8 -21 17
-7 10 -16 14 -21 10 -8 -9 31 -47 48 -47 4 0 13 9 19 20 19 36 -25 83 -45 49z
m39 -25 c5 -14 4 -15 -9 -4 -17 14 -19 20 -6 20 5 0 12 -7 15 -16z"/>
<path d="M2170 550 l-22 -22 21 -21 21 -21 22 22 22 22 -21 21 -21 21 -22 -22z
m32 -25 c0 -5 -5 -11 -11 -13 -6 -2 -11 4 -11 13 0 9 5 15 11 13 6 -2 11 -8
11 -13z"/>
<path d="M2100 533 c1 -14 58 -78 65 -72 8 9 -38 78 -52 79 -7 0 -13 -3 -13
-7z"/>
<path d="M877 481 c-31 -46 -32 -51 -14 -51 19 0 62 69 50 81 -6 6 -19 -4 -36
-30z"/>
<path d="M2078 479 c-21 -12 -23 -29 -5 -53 12 -16 16 -17 35 -5 24 15 28 39
10 57 -14 14 -18 14 -40 1z m32 -30 c0 -5 -7 -9 -15 -9 -15 0 -20 12 -9 23 8
8 24 -1 24 -14z"/>
<path d="M905 444 c-22 -33 -8 -54 16 -23 21 28 36 20 18 -10 -17 -26 -2 -42
17 -17 20 28 18 41 -10 59 -23 15 -25 15 -41 -9z"/>
<path d="M1998 427 c-16 -13 -16 -15 1 -41 12 -18 21 -24 26 -17 4 7 1 19 -6
27 -6 8 -9 18 -5 22 4 4 15 -4 25 -17 13 -17 20 -20 26 -12 8 13 -21 51 -39
51 -6 0 -19 -6 -28 -13z"/>
<path d="M985 410 c-7 -12 2 -30 16 -30 6 0 7 5 4 10 -7 11 8 14 18 4 12 -12
-17 -33 -31 -22 -7 6 -15 8 -19 4 -7 -6 25 -35 40 -36 15 0 28 52 16 66 -13
16 -35 18 -44 4z"/>
<path d="M1892 403 c25 -53 43 -83 50 -83 11 0 10 28 -2 35 -15 9 -12 25 4 25
8 0 18 -9 21 -20 7 -22 25 -27 25 -7 -1 25 -28 49 -49 42 -12 -4 -21 -2 -21 4
0 6 -7 11 -16 11 -9 0 -14 -3 -12 -7z"/>
<path d="M1056 368 c-12 -29 -12 -35 2 -45 21 -17 32 -16 32 3 0 8 -4 12 -10
9 -5 -3 -10 1 -10 9 0 10 9 16 23 17 12 0 16 3 10 6 -7 2 -13 11 -13 19 0 25
-20 15 -34 -18z"/>
<path d="M1498 393 c7 -3 16 -2 19 1 4 3 -2 6 -13 5 -11 0 -14 -3 -6 -6z"/>
<path d="M1130 380 c0 -5 5 -10 10 -10 6 0 10 5 10 10 0 6 -4 10 -10 10 -5 0
-10 -4 -10 -10z"/>
<path d="M1856 357 c-21 -15 -14 -57 9 -57 25 0 45 12 45 28 0 12 -3 13 -12 4
-17 -17 -38 -15 -38 3 0 8 9 15 21 15 11 0 17 5 14 10 -8 13 -18 13 -39 -3z"/>
<path d="M1109 334 c-10 -28 -5 -44 10 -28 5 5 12 19 16 32 9 32 -13 28 -26
-4z"/>
<path d="M1155 348 c-3 -7 -6 -24 -7 -38 -2 -19 2 -26 20 -28 12 -2 22 1 22 7
0 6 -7 11 -15 11 -9 0 -12 6 -8 16 3 8 12 13 19 10 18 -7 18 2 0 20 -18 17
-25 18 -31 2z"/>
<path d="M1698 343 c-22 -5 -24 -23 -3 -23 8 0 17 -14 21 -35 3 -20 12 -35 20
-35 17 0 17 5 5 48 -8 25 -7 32 5 32 8 0 14 5 14 10 0 10 -30 12 -62 3z"/>
<path d="M1771 326 c-9 -11 -10 -20 -1 -35 13 -25 29 -27 56 -5 18 15 18 15
-9 9 -19 -4 -26 -2 -22 5 3 5 1 10 -5 10 -6 0 -8 5 -5 10 5 8 11 7 21 -1 16
-13 30 -6 19 10 -9 16 -40 13 -54 -3z"/>
<path d="M1217 323 c-17 -17 -6 -54 19 -64 32 -11 30 -13 39 29 7 35 -9 46
-20 12 -9 -29 -28 -25 -21 5 6 24 -3 33 -17 18z"/>
<path d="M1592 322 c-9 -6 -11 -21 -6 -50 7 -45 24 -58 24 -19 0 13 5 28 12
35 9 9 8 12 -7 13 -11 0 -14 3 -7 6 13 5 17 23 5 23 -5 0 -14 -4 -21 -8z"/>
<path d="M1299 318 c0 -2 -1 -19 -2 -38 -2 -29 2 -36 21 -38 14 -2 22 2 22 12
0 10 -6 13 -15 10 -11 -5 -13 -2 -9 10 3 9 14 16 23 16 14 1 13 3 -3 15 -18
14 -35 19 -37 13z"/>
<path d="M1367 293 c-13 -12 -7 -51 9 -57 24 -9 44 -7 44 4 0 6 -9 10 -20 10
-14 0 -20 7 -20 23 1 20 2 21 14 5 14 -18 36 -24 36 -10 0 23 -47 42 -63 25z"/>
<path d="M1513 293 c-7 -2 -13 -18 -13 -34 0 -26 3 -29 30 -29 34 0 49 23 33
49 -11 17 -30 23 -50 14z m35 -31 c2 -7 -3 -12 -12 -12 -9 0 -16 7 -16 16 0
17 22 14 28 -4z"/>
<path d="M2440 2190 c0 -5 5 -10 11 -10 5 0 7 5 4 10 -3 6 -8 10 -11 10 -2 0
-4 -4 -4 -10z"/>
<path d="M2586 1967 c3 -10 9 -15 12 -12 3 3 0 11 -7 18 -10 9 -11 8 -5 -6z"/>
<path d="M251 1034 c0 -11 3 -14 6 -6 3 7 2 16 -1 19 -3 4 -6 -2 -5 -13z"/>
</g>
</svg>
